<?xml version="1.0" encoding="UTF-8"?>
<svg version="1.1" xmlns="http://www.w3.org/2000/svg" width="500" height="500">
<path d="M0 0 C8.91 0 17.82 0 27 0 C27 8.25 27 16.5 27 25 C43.5 25 60 25 77 25 C77 17.08 77 9.16 77 1 C78 0 78 0 80.59204102 -0.11352539 C81.71795654 -0.10828857 82.84387207 -0.10305176 84.00390625 -0.09765625 C85.21884766 -0.09443359 86.43378906 -0.09121094 87.68554688 -0.08789062 C88.96494141 -0.07951172 90.24433594 -0.07113281 91.5625 -0.0625 C92.84576172 -0.05798828 94.12902344 -0.05347656 95.45117188 -0.04882812 C98.6341342 -0.03699555 101.81707274 -0.01905944 105 0 C105 8.25 105 16.5 105 25 C113.25 25 121.5 25 130 25 C131.24084307 27.48168614 131.12933103 29.16426199 131.1328125 31.9375 C131.13410156 32.91460937 131.13539063 33.89171875 131.13671875 34.8984375 C131.13285156 35.92195313 131.12898437 36.94546875 131.125 38 C131.12886719 39.02351563 131.13273438 40.04703125 131.13671875 41.1015625 C131.13478516 42.56722656 131.13478516 42.56722656 131.1328125 44.0625 C131.13168457 44.96097656 131.13055664 45.85945313 131.12939453 46.78515625 C131 49 131 49 130 51 C131.0372522 50.99214478 131.0372522 50.99214478 132.09545898 50.98413086 C135.20946352 50.963425 138.32345361 50.95036037 141.4375 50.9375 C142.52611328 50.92912109 143.61472656 50.92074219 144.73632812 50.91210938 C145.77080078 50.90888672 146.80527344 50.90566406 147.87109375 50.90234375 C148.82943115 50.89710693 149.78776855 50.89187012 150.77514648 50.88647461 C153 51 153 51 154 52 C154.09746311 53.3510732 154.12631579 54.70718373 154.12698364 56.06176758 C154.12980347 56.9367691 154.13262329 57.81177063 154.13552856 58.71328735 C154.13249222 60.16425308 154.13249222 60.16425308 154.12939453 61.64453125 C154.13202301 63.16389786 154.13202301 63.16389786 154.13470459 64.71395874 C154.13912522 68.08015631 154.13618437 71.44630184 154.1328125 74.8125 C154.13348548 77.14038096 154.13445545 79.46826186 154.13571167 81.79614258 C154.13718893 86.68213569 154.13503318 91.56811056 154.13037109 96.45410156 C154.1246738 102.73272656 154.12795265 109.01130882 154.13394356 115.28993225 C154.13754841 120.09900233 154.13641093 124.90806219 154.13381577 129.71713257 C154.13314629 132.03290817 154.13397564 134.34868469 154.13629532 136.66445923 C154.13882061 139.89482091 154.13498299 143.12511233 154.12939453 146.35546875 C154.13141876 147.32277924 154.13344299 148.29008972 154.13552856 149.28671265 C154.13270874 150.16171417 154.12988892 151.0367157 154.12698364 151.93823242 C154.1264181 153.08529915 154.1264181 153.08529915 154.12584114 154.25553894 C154 156 154 156 153 157 C145.08 157 137.16 157 129 157 C129 140.5 129 124 129 107 C121.08 107 113.16 107 105 107 C105 123.5 105 140 105 157 C111.93 157 118.86 157 126 157 C126 165.25 126 173.5 126 182 C110.16 182 94.32 182 78 182 C78 165.5 78 149 78 132 C61.17 132 44.34 132 27 132 C27 148.5 27 165 27 182 C11.16 182 -4.68 182 -21 182 C-21 173.75 -21 165.5 -21 157 C-14.07 157 -7.14 157 0 157 C0 140.5 0 124 0 107 C-7.92 107 -15.84 107 -24 107 C-24 123.5 -24 140 -24 157 C-32.25 157 -40.5 157 -49 157 C-49 122.02 -49 87.04 -49 51 C-41.41 51 -33.82 51 -26 51 C-26.01160156 49.20691406 -26.02320313 47.41382813 -26.03515625 45.56640625 C-26.04453229 43.23177187 -26.05363269 40.89713637 -26.0625 38.5625 C-26.07087891 37.37849609 -26.07925781 36.19449219 -26.08789062 34.97460938 C-26.09272461 33.28754883 -26.09272461 33.28754883 -26.09765625 31.56640625 C-26.10289307 30.52427979 -26.10812988 29.48215332 -26.11352539 28.40844727 C-26 26 -26 26 -25 25 C-23.14630389 24.91262355 -21.28932459 24.89301847 -19.43359375 24.90234375 C-18.42095459 24.90484131 -17.40831543 24.90733887 -16.36499023 24.90991211 C-15.06891846 24.91901611 -13.77284668 24.92812012 -12.4375 24.9375 C-8.333125 24.958125 -4.22875 24.97875 0 25 C0 16.75 0 8.5 0 0 Z M1 53 C1 61.58 1 70.16 1 79 C13.375 78.505 13.375 78.505 26 78 C26 69.75 26 61.5 26 53 C17.75 53 9.5 53 1 53 Z M79 53 C79 61.58 79 70.16 79 79 C86.92 78.67 94.84 78.34 103 78 C103 69.75 103 61.5 103 53 C95.08 53 87.16 53 79 53 Z " fill="#2BA1B4" transform="translate(199,115)"/>
<path d="M0 0 C8.25 0 16.5 0 25 0 C25.02291855 6.94177274 25.042843 13.88341493 25.05493164 20.82519531 C25.05996959 23.18815556 25.06680008 25.55111268 25.07543945 27.9140625 C25.08752854 31.30469535 25.09323359 34.69528709 25.09765625 38.0859375 C25.10281754 39.14743011 25.10797882 40.20892273 25.11329651 41.30258179 C25.11337204 42.28344757 25.11344757 43.26431335 25.11352539 44.27490234 C25.115746 45.14094086 25.11796661 46.00697937 25.12025452 46.89926147 C25 49 25 49 24 51 C16.08 51 8.16 51 0 51 C0 59.91 0 68.82 0 78 C2.475 77.505 2.475 77.505 5 77 C6.61961498 76.92350219 8.24189445 76.89188319 9.86328125 76.90234375 C11.19262695 76.90717773 11.19262695 76.90717773 12.54882812 76.91210938 C13.9168457 76.92467773 13.9168457 76.92467773 15.3125 76.9375 C16.24384766 76.94201172 17.17519531 76.94652344 18.13476562 76.95117188 C20.42324373 76.96290766 22.71158808 76.97932637 25 77 C24.98976807 76.30890137 24.97953613 75.61780273 24.96899414 74.90576172 C24.86668236 66.88737345 25.41335607 58.99302356 26 51 C33.92 51 41.84 51 50 51 C50 54.96 50 58.92 50 63 C50.495 64.485 50.495 64.485 51 66 C51.085409 68.94964113 51.11582927 71.87503019 51.09765625 74.82421875 C51.0962413 75.68561966 51.09482635 76.54702057 51.09336853 77.43452454 C51.0877714 80.18555169 51.07521946 82.93649744 51.0625 85.6875 C51.05748463 87.5527332 51.05292179 89.41796767 51.04882812 91.28320312 C51.03780292 95.85550011 51.02054027 100.42773625 51 105 C51.88768066 104.83250244 52.77536133 104.66500488 53.68994141 104.49243164 C56.58869712 104.06118881 59.05169911 103.95107332 61.9609375 104.12109375 C62.75806152 104.16419678 63.55518555 104.2072998 64.37646484 104.25170898 C65.36598145 104.31302002 66.35549805 104.37433105 67.375 104.4375 C70.55125 104.623125 73.7275 104.80875 77 105 C77 113.25 77 121.5 77 130 C59.84 130 42.68 130 25 130 C25 146.83 25 163.66 25 181 C9.49 181 -6.02 181 -22 181 C-22 172.75 -22 164.5 -22 156 C-15.07 156 -8.14 156 -1 156 C-1 139.5 -1 123 -1 106 C-8.92 106 -16.84 106 -25 106 C-25 122.5 -25 139 -25 156 C-33.25 156 -41.5 156 -50 156 C-50 121.02 -50 86.04 -50 50 C-42.41 50 -34.82 50 -27 50 C-27 41.75 -27 33.5 -27 25 C-18.09 25 -9.18 25 0 25 C0 16.75 0 8.5 0 0 Z " fill="#16274D" transform="translate(200,116)"/>
<path d="M0 0 C17.16 0 34.32 0 52 0 C52 8.25 52 16.5 52 25 C59.92 25 67.84 25 76 25 C76 25.33 76 25.66 76 26 C74.41750513 26.17444825 72.83391187 26.33892422 71.25 26.5 C69.92742187 26.63921875 69.92742187 26.63921875 68.578125 26.78125 C63.39458254 27.09814779 58.19322026 27 53 27 C53 35.58 53 44.16 53 53 C61.25 53 69.5 53 78 53 C78 61.25 78 69.5 78 78 C86.25 78.33 94.5 78.66 103 79 C103 79.33 103 79.66 103 80 C95.08 80 87.16 80 79 80 C79 96.83 79 113.66 79 131 C85.93 131 92.86 131 100 131 C100 139.25 100 147.5 100 156 C84.16 156 68.32 156 52 156 C52 139.5 52 123 52 106 C35.17 106 18.34 106 1 106 C1 122.5 1 139 1 156 C0.67 156 0.34 156 0 156 C0 139.17 0 122.34 0 105 C17.16 105 34.32 105 52 105 C52 96.75 52 88.5 52 80 C43.42 80 34.84 80 26 80 C25.93941406 77.25429687 25.87882812 74.50859375 25.81640625 71.6796875 C25.75452751 69.00876354 25.69117692 66.33787824 25.62768555 63.66699219 C25.58448014 61.81644154 25.54279542 59.96585471 25.50268555 58.11523438 C25.4446328 55.44910806 25.38104076 52.7831614 25.31640625 50.1171875 C25.29969376 49.29507782 25.28298126 48.47296814 25.26576233 47.62594604 C25.18125755 44.31969909 25.04789513 41.2473678 24.41772461 37.99267578 C24 35 24 35 25 26 C17.08 26 9.16 26 1 26 C1.07889429 30.8016221 1.07889429 30.8016221 1.18017578 35.6027832 C1.21099473 39.31447871 1.10977558 40.83533664 -1 44 C-0.67 38.39 -0.34 32.78 0 27 C-8.25 27 -16.5 27 -25 27 C-25 26.67 -25 26.34 -25 26 C-16.585 25.505 -16.585 25.505 -8 25 C-8 24.67 -8 24.34 -8 24 C-5.36 24 -2.72 24 0 24 C0 16.08 0 8.16 0 0 Z " fill="#2C718A" transform="translate(225,141)"/>
<path d="M0 0 C8.91 0 17.82 0 27 0 C27 8.25 27 16.5 27 25 C43.5 25 60 25 77 25 C77 17.08 77 9.16 77 1 C78 0 78 0 80.59204102 -0.11352539 C81.71795654 -0.10828857 82.84387207 -0.10305176 84.00390625 -0.09765625 C85.21884766 -0.09443359 86.43378906 -0.09121094 87.68554688 -0.08789062 C88.96494141 -0.07951172 90.24433594 -0.07113281 91.5625 -0.0625 C92.84576172 -0.05798828 94.12902344 -0.05347656 95.45117188 -0.04882812 C98.6341342 -0.03699555 101.81707274 -0.01905944 105 0 C105 8.25 105 16.5 105 25 C113.25 25 121.5 25 130 25 C131.24084307 27.48168614 131.12933103 29.16426199 131.1328125 31.9375 C131.13410156 32.91460937 131.13539063 33.89171875 131.13671875 34.8984375 C131.13285156 35.92195313 131.12898437 36.94546875 131.125 38 C131.12886719 39.02351563 131.13273438 40.04703125 131.13671875 41.1015625 C131.13478516 42.56722656 131.13478516 42.56722656 131.1328125 44.0625 C131.13168457 44.96097656 131.13055664 45.85945313 131.12939453 46.78515625 C131 49 131 49 130 51 C131.0372522 50.99214478 131.0372522 50.99214478 132.09545898 50.98413086 C135.20946352 50.963425 138.32345361 50.95036037 141.4375 50.9375 C142.52611328 50.92912109 143.61472656 50.92074219 144.73632812 50.91210938 C145.77080078 50.90888672 146.80527344 50.90566406 147.87109375 50.90234375 C148.82943115 50.89710693 149.78776855 50.89187012 150.77514648 50.88647461 C153 51 153 51 154 52 C154.09746311 53.3510732 154.12631579 54.70718373 154.12698364 56.06176758 C154.12980347 56.9367691 154.13262329 57.81177063 154.13552856 58.71328735 C154.13249222 60.16425308 154.13249222 60.16425308 154.12939453 61.64453125 C154.13202301 63.16389786 154.13202301 63.16389786 154.13470459 64.71395874 C154.13912522 68.08015631 154.13618437 71.44630184 154.1328125 74.8125 C154.13348548 77.14038096 154.13445545 79.46826186 154.13571167 81.79614258 C154.13718893 86.68213569 154.13503318 91.56811056 154.13037109 96.45410156 C154.1246738 102.73272656 154.12795265 109.01130882 154.13394356 115.28993225 C154.13754841 120.09900233 154.13641093 124.90806219 154.13381577 129.71713257 C154.13314629 132.03290817 154.13397564 134.34868469 154.13629532 136.66445923 C154.13882061 139.89482091 154.13498299 143.12511233 154.12939453 146.35546875 C154.13141876 147.32277924 154.13344299 148.29008972 154.13552856 149.28671265 C154.13270874 150.16171417 154.12988892 151.0367157 154.12698364 151.93823242 C154.1264181 153.08529915 154.1264181 153.08529915 154.12584114 154.25553894 C154 156 154 156 153 157 C145.08 157 137.16 157 129 157 C129 140.5 129 124 129 107 C121.08 107 113.16 107 105 107 C105 106.67 105 106.34 105 106 C112.92 106 120.84 106 129 106 C128.87871509 98.73064683 128.7554827 91.46137383 128.62768555 84.19213867 C128.58494375 81.73024304 128.54324048 79.26832911 128.50268555 76.80639648 C128.23908052 60.85666501 127.79536155 44.93256665 127 29 C124.3416748 28.89831543 124.3416748 28.89831543 121.68334961 28.79663086 C120.63823212 28.75649872 119.59311462 28.71636658 118.5163269 28.67501831 C116.32811004 28.59166391 114.13978881 28.51103962 111.95141602 28.43188477 C111.01998779 28.39377686 110.08855957 28.35566895 109.12890625 28.31640625 C108.17056885 28.27974854 107.21223145 28.24309082 106.22485352 28.20532227 C104 28 104 28 103 27 C102.84235595 25.22130274 102.74899323 23.43681524 102.68359375 21.65234375 C102.64169922 20.57275391 102.59980469 19.49316406 102.55664062 18.38085938 C102.51732422 17.24455078 102.47800781 16.10824219 102.4375 14.9375 C102.39431641 13.79732422 102.35113281 12.65714844 102.30664062 11.48242188 C102.20017262 8.65510492 102.09954738 5.82756908 102 3 C91.11 2.505 91.11 2.505 80 2 C80.07909306 9.15029823 80.07909306 9.15029823 80.18017578 16.30029297 C80.1851709 17.18861816 80.19016602 18.07694336 80.1953125 18.9921875 C80.20578613 19.90339355 80.21625977 20.81459961 80.22705078 21.75341797 C80 24 80 24 78 26 C75.78536987 26.24050903 75.78536987 26.24050903 72.99951172 26.22705078 C71.95858368 26.22689972 70.91765564 26.22674866 69.84518433 26.22659302 C68.1545134 26.21110916 68.1545134 26.21110916 66.4296875 26.1953125 C64.70264084 26.19106766 64.70264084 26.19106766 62.94070435 26.18673706 C59.25203188 26.17551408 55.56359947 26.15040556 51.875 26.125 C49.37890975 26.11497294 46.8828157 26.10584662 44.38671875 26.09765625 C38.25764491 26.07726678 32.12909215 26.03812151 26 26 C26 17.75 26 9.5 26 1 C17.75 1 9.5 1 1 1 C1 9.25 1 17.5 1 26 C-7.58 26 -16.16 26 -25 26 C-25 25.67 -25 25.34 -25 25 C-16.75 25 -8.5 25 0 25 C0 16.75 0 8.5 0 0 Z " fill="#35B1BB" transform="translate(199,115)"/>
<path d="M0 0 C8.58 0 17.16 0 26 0 C26 8.58 26 17.16 26 26 C34.18252797 25.9604086 34.18252797 25.9604086 42.36499023 25.90991211 C43.37762939 25.90741455 44.39026855 25.90491699 45.43359375 25.90234375 C46.47572021 25.89710693 47.51784668 25.89187012 48.59155273 25.88647461 C51 26 51 26 52 27 C52.09346915 28.65738443 52.11744977 30.31874644 52.11352539 31.97875977 C52.11341209 33.57029625 52.11341209 33.57029625 52.11329651 35.19398499 C52.10813522 36.348134 52.10297394 37.50228302 52.09765625 38.69140625 C52.0962413 39.86638168 52.09482635 41.04135712 52.09336853 42.25193787 C52.08774992 46.02215064 52.07519426 49.79230504 52.0625 53.5625 C52.0574874 56.11132727 52.05292408 58.66015547 52.04882812 61.20898438 C52.03862331 67.47269709 52.01905152 73.73628284 52 80 C43.42 80 34.84 80 26 80 C25.93941406 77.25429687 25.87882812 74.50859375 25.81640625 71.6796875 C25.75452751 69.00876354 25.69117692 66.33787824 25.62768555 63.66699219 C25.58448014 61.81644154 25.54279542 59.96585471 25.50268555 58.11523438 C25.4446328 55.44910806 25.38104076 52.7831614 25.31640625 50.1171875 C25.29969376 49.29507782 25.28298126 48.47296814 25.26576233 47.62594604 C25.18125755 44.31969909 25.04789513 41.2473678 24.41772461 37.99267578 C24 35 24 35 25 26 C17.08 26 9.16 26 1 26 C1.07889429 30.8016221 1.07889429 30.8016221 1.18017578 35.6027832 C1.21099473 39.31447871 1.10977558 40.83533664 -1 44 C-0.67 38.39 -0.34 32.78 0 27 C-8.25 27 -16.5 27 -25 27 C-25 26.67 -25 26.34 -25 26 C-16.585 25.505 -16.585 25.505 -8 25 C-8 24.67 -8 24.34 -8 24 C-5.36 24 -2.72 24 0 24 C0 16.08 0 8.16 0 0 Z " fill="#216883" transform="translate(225,141)"/>
<path d="M0 0 C8.58 0 17.16 0 26 0 C26 8.25 26 16.5 26 25 C33.92 25 41.84 25 50 25 C50 25.33 50 25.66 50 26 C48.41750513 26.17444825 46.83391187 26.33892422 45.25 26.5 C44.36828125 26.5928125 43.4865625 26.685625 42.578125 26.78125 C37.39458254 27.09814779 32.19322026 27 27 27 C27 35.58 27 44.16 27 53 C35.25 53 43.5 53 52 53 C52 61.25 52 69.5 52 78 C60.25 78.33 68.5 78.66 77 79 C77 79.33 77 79.66 77 80 C69.08 80 61.16 80 53 80 C53 96.83 53 113.66 53 131 C59.93 131 66.86 131 74 131 C74 139.25 74 147.5 74 156 C68.8334375 156.0309375 68.8334375 156.0309375 63.5625 156.0625 C62.47525635 156.071604 61.3880127 156.08070801 60.26782227 156.09008789 C58.99249634 156.09383423 58.99249634 156.09383423 57.69140625 156.09765625 C56.81685791 156.10289307 55.94230957 156.10812988 55.04125977 156.11352539 C53 156 53 156 52 155 C51.90507278 152.65746218 51.87440209 150.34453896 51.88647461 148.00170898 C51.88632858 147.27004517 51.88618256 146.53838135 51.8860321 145.7845459 C51.88673133 143.35503216 51.89452415 140.92559417 51.90234375 138.49609375 C51.9042079 136.81600486 51.90563181 135.13591543 51.90663147 133.45582581 C51.91045693 129.02526357 51.92028744 124.5947339 51.93133545 120.16418457 C51.94154897 115.64657024 51.94612896 111.12895066 51.95117188 106.61132812 C51.96190969 97.74087107 51.97898644 88.87043824 52 80 C51.195625 80.2784375 51.195625 80.2784375 50.375 80.5625 C48 81 48 81 42 80 C36.72 80 31.44 80 26 80 C25.505 53.765 25.505 53.765 25 27 C16.75 26.67 8.5 26.34 0 26 C0 17.42 0 8.84 0 0 Z " fill="#297E97" transform="translate(251,141)"/>
<path d="M0 0 C10 0 10 0 12.19140625 2.0625 C12.87009766 3.5165625 12.87009766 3.5165625 13.5625 5 C14.10132813 6.07765625 14.64015625 7.1553125 15.1953125 8.265625 C15.47665039 8.85923828 15.75798828 9.45285156 16.04785156 10.06445312 C17.84442035 13.716555 19.91826779 17.21782459 21.9375 20.75 C22.71894169 22.13978614 23.49901495 23.53034314 24.27734375 24.921875 C24.84582031 25.93765625 25.41429687 26.9534375 26 28 C28.38662346 25.10590503 30.53715384 22.30537176 32.3125 19 C32.72628906 18.236875 33.14007813 17.47375 33.56640625 16.6875 C34.03949219 15.800625 34.51257813 14.91375 35 14 C35.93194008 12.2587956 36.8639254 10.51761469 37.79760742 8.77734375 C38.71704174 7.06150631 39.63204195 5.34329511 40.546875 3.625 C42 1 42 1 43 0 C46.3 0 49.6 0 53 0 C53 16.17 53 32.34 53 49 C49.7 49 46.4 49 43 49 C41.71394339 46.42788678 41.78956059 44.43093034 41.68359375 41.5546875 C41.64169922 40.47832031 41.59980469 39.40195312 41.55664062 38.29296875 C41.51732422 37.16503906 41.47800781 36.03710938 41.4375 34.875 C41.39431641 33.73933594 41.35113281 32.60367188 41.30664062 31.43359375 C41.2003396 28.62252232 41.09830595 25.81136055 41 23 C40.63648438 23.76183594 40.27296875 24.52367187 39.8984375 25.30859375 C32.63636364 40.22377622 32.63636364 40.22377622 29 44 C25.625 44.5625 25.625 44.5625 23 44 C22.58041016 43.10861328 22.58041016 43.10861328 22.15234375 42.19921875 C18.89237679 35.45915843 15.09708964 29.2661371 11 23 C10.67 31.58 10.34 40.16 10 49 C6.7 49 3.4 49 0 49 C0 32.83 0 16.66 0 0 Z " fill="#45555C" transform="translate(298,322)"/>
<path d="M0 0 C9 0 9 0 11.53125 2.23828125 C12.1809375 3.25277344 12.830625 4.26726562 13.5 5.3125 C14.60214844 6.94832031 14.60214844 6.94832031 15.7265625 8.6171875 C16.0968457 9.18018555 16.46712891 9.74318359 16.84863281 10.32324219 C18.68804763 13.00201678 20.783584 15.45352048 22.875 17.9375 C25.59413854 21.16830439 27.86217999 24.36237392 30 28 C30.02505615 27.18732666 30.0501123 26.37465332 30.07592773 25.53735352 C30.19149118 21.87889248 30.31439584 18.22071472 30.4375 14.5625 C30.47681641 13.28310547 30.51613281 12.00371094 30.55664062 10.68554688 C30.59853516 9.47060547 30.64042969 8.25566406 30.68359375 7.00390625 C30.72025146 5.87799072 30.75690918 4.7520752 30.79467773 3.59204102 C31 1 31 1 32 0 C35.3 0 38.6 0 42 0 C42 16.17 42 32.34 42 49 C33 49 33 49 30.58984375 47.35546875 C30.04457031 46.64003906 29.49929687 45.92460937 28.9375 45.1875 C28.36902344 44.47980469 27.80054688 43.77210938 27.21484375 43.04296875 C26 41 26 41 26 38 C25.34 38 24.68 38 24 38 C23.34 36.35 22.68 34.7 22 33 C21.34 33 20.68 33 20 33 C18.2734375 31.1015625 18.2734375 31.1015625 16.375 28.625 C15.74335938 27.81289063 15.11171875 27.00078125 14.4609375 26.1640625 C13 24 13 24 13 22 C12.34 22 11.68 22 11 22 C10.67 30.91 10.34 39.82 10 49 C6.7 49 3.4 49 0 49 C0 32.83 0 16.66 0 0 Z " fill="#3D4C53" transform="translate(153,322)"/>
<path d="M0 0 C12.54 0 25.08 0 38 0 C38 17.49 38 34.98 38 53 C17 53 17 53 13 52 C13 43.75 13 35.5 13 27 C6.07 27 -0.86 27 -8 27 C-8 26.67 -8 26.34 -8 26 C-1.4 26 5.2 26 12 26 C12 17.75 12 9.5 12 1 C8.04 1 4.08 1 0 1 C0 0.67 0 0.34 0 0 Z " fill="#36A9B8" transform="translate(290,167)"/>
<path d="M0 0 C3.63 0 7.26 0 11 0 C11.02505615 1.00901367 11.0501123 2.01802734 11.07592773 3.05761719 C11.17022409 6.80741696 11.27039021 10.55704108 11.37231445 14.30664062 C11.41557931 15.92834357 11.45726028 17.55008958 11.49731445 19.171875 C11.55522214 21.50534027 11.61885698 23.83859043 11.68359375 26.171875 C11.70030624 26.89493835 11.71701874 27.61800171 11.73423767 28.36297607 C11.79208585 33.28585217 11.79208585 33.28585217 13 38 C17.59489599 40.297448 21.05342386 40.02664788 26 39 C27.485 38.505 27.485 38.505 29 38 C30.19954782 34.40135655 30.21104102 31.05466979 30.28125 27.3046875 C30.29965942 26.55663849 30.31806885 25.80858948 30.33703613 25.03787231 C30.41571069 21.8377305 30.48366212 18.6373833 30.55224609 15.43701172 C30.60383909 13.10112676 30.66112016 10.76543003 30.71875 8.4296875 C30.73232544 7.70055145 30.74590088 6.97141541 30.7598877 6.22018433 C30.88714351 1.11285649 30.88714351 1.11285649 32 0 C33.68608966 -0.07205511 35.37500659 -0.08386068 37.0625 -0.0625 C37.98160156 -0.05347656 38.90070313 -0.04445313 39.84765625 -0.03515625 C40.55792969 -0.02355469 41.26820313 -0.01195312 42 0 C42.07463717 4.83801979 42.12883014 9.67569804 42.16479492 14.51416016 C42.17980136 16.15712326 42.20021312 17.80004686 42.22631836 19.44287109 C42.26306359 21.81618042 42.27980772 24.18895625 42.29296875 26.5625 C42.30845261 27.28679199 42.32393646 28.01108398 42.33988953 28.75732422 C42.3417396 34.47363789 41.45452087 40.27119544 37.51066589 44.65576172 C31.92514811 49.62593206 25.11658254 50.64906282 17.87109375 50.390625 C11.78013241 49.56192278 6.88860893 46.78598022 3 42 C-0.51834307 36.62989741 -0.12336108 29.73001962 -0.09765625 23.53515625 C-0.0962413 22.85698349 -0.09482635 22.17881073 -0.09336853 21.48008728 C-0.08782745 19.34084422 -0.07528653 17.20171075 -0.0625 15.0625 C-0.05747736 13.60091298 -0.0529158 12.13932431 -0.04882812 10.67773438 C-0.03787745 7.11845474 -0.02065445 3.55923809 0 0 Z " fill="#40525A" transform="translate(247,322)"/>
<path d="M0 0 C2.3828125 -0.29296875 2.3828125 -0.29296875 5.125 -0.1875 C6.03507812 -0.16042969 6.94515625 -0.13335937 7.8828125 -0.10546875 C8.58148438 -0.07066406 9.28015625 -0.03585937 10 0 C15.29048605 10.02080299 19.9613514 20.28251778 24.4375 30.6875 C24.84035217 31.61749817 24.84035217 31.61749817 25.25134277 32.56628418 C26.02606177 34.35816978 26.79246232 36.1536447 27.55859375 37.94921875 C28.00517334 38.99424561 28.45175293 40.03927246 28.91186523 41.1159668 C30 44 30 44 31 49 C27.37 49 23.74 49 20 49 C16 40.25 16 40.25 16 38 C15.113125 38.165 14.22625 38.33 13.3125 38.5 C8.48517134 39.2151598 3.66006898 39.02711289 -1.20703125 38.9375 C-3.95612929 38.80010984 -3.95612929 38.80010984 -6 40 C-6.86765518 41.85014474 -6.86765518 41.85014474 -7.5625 44 C-8.91008174 47.91008174 -8.91008174 47.91008174 -10 49 C-11.85287502 49.07226502 -13.70833878 49.0838122 -15.5625 49.0625 C-16.57441406 49.05347656 -17.58632813 49.04445313 -18.62890625 49.03515625 C-19.41136719 49.02355469 -20.19382812 49.01195312 -21 49 C-19.23329263 43.19231554 -16.76037706 37.73079239 -14.3125 32.1875 C-10.81318251 24.21626807 -7.38767282 16.22575489 -4.1574707 8.14135742 C-2.96490567 5.18729383 -1.77610511 2.66415766 0 0 Z M5 13 C4.17724328 14.53621735 3.36727423 16.07928632 2.5625 17.625 C1.88380859 18.91277344 1.88380859 18.91277344 1.19140625 20.2265625 C-0.3174378 23.43524382 -0.3174378 23.43524382 -1 29 C3.29 29 7.58 29 12 29 C11.071875 26.710625 11.071875 26.710625 10.125 24.375 C8.6202622 20.61849145 7.2191981 16.86079398 6 13 C5.67 13 5.34 13 5 13 Z " fill="#405059" transform="translate(375,322)"/>
<path d="M0 0 C4.104375 -0.0825 8.20875 -0.165 12.4375 -0.25 C13.71294678 -0.28641602 14.98839355 -0.32283203 16.30249023 -0.36035156 C23.2452631 -0.42747857 29.11840383 0.03296922 35 4 C39.14635113 8.28321404 40.32681673 12.18872774 40.5625 18.125 C40.32091634 23.17282695 39.631374 26.27551385 36 30 C30.21074772 34.06563399 25.26102922 35.14684256 18.3125 35.0625 C17.2596582 35.05573242 17.2596582 35.05573242 16.18554688 35.04882812 C14.45699462 35.03706927 12.72848635 35.01913454 11 35 C11 39.62 11 44.24 11 49 C7.37 49 3.74 49 0 49 C0 32.83 0 16.66 0 0 Z M11 10 C11 15.28 11 20.56 11 26 C19.63483575 26.83249525 19.63483575 26.83249525 27.25 23.75 C29.36555423 20.58828531 29.36555423 20.58828531 30 17 C28.91970563 13.2189697 28.35693737 12.23795825 25 10 C22.36463867 9.50369482 22.36463867 9.50369482 19.5 9.3125 C18.5409375 9.22613281 17.581875 9.13976562 16.59375 9.05078125 C13.88324118 8.85295447 13.88324118 8.85295447 11 10 Z " fill="#3F4E56" transform="translate(106,322)"/>
<path d="M0 0 C11.55 0 23.1 0 35 0 C35 2.97 35 5.94 35 9 C26.75 9 18.5 9 10 9 C10 12.63 10 16.26 10 20 C17.26 20 24.52 20 32 20 C32 22.97 32 25.94 32 29 C24.74 29 17.48 29 10 29 C10 32.63 10 36.26 10 40 C18.58 40 27.16 40 36 40 C36 42.97 36 45.94 36 49 C24.12 49 12.24 49 0 49 C0 32.83 0 16.66 0 0 Z " fill="#46555D" transform="translate(205,322)"/>
<path d="M0 0 C0.66 0 1.32 0 2 0 C2.33 24.75 2.66 49.5 3 75 C-5.58 75 -14.16 75 -23 75 C-23 58.5 -23 42 -23 25 C-22.34 25 -21.68 25 -21 25 C-19.66646123 33.00123264 -19.93254683 40.90561925 -20 49 C-13.73 49.33 -7.46 49.66 -1 50 C-1.01160156 48.48535156 -1.02320313 46.97070312 -1.03515625 45.41015625 C-1.11326223 30.2466128 -0.73243378 15.14540596 0 0 Z " fill="#205E77" transform="translate(301,222)"/>
<path d="M0 0 C8.58 0 17.16 0 26 0 C26 13.53 26 27.06 26 41 C22.78859505 36.18289257 24.39242341 31.65046231 25 26 C17.08 26 9.16 26 1 26 C1.07889429 30.8016221 1.07889429 30.8016221 1.18017578 35.6027832 C1.21099473 39.31447871 1.10977558 40.83533664 -1 44 C-0.67 38.39 -0.34 32.78 0 27 C-8.25 27 -16.5 27 -25 27 C-25 26.67 -25 26.34 -25 26 C-16.585 25.505 -16.585 25.505 -8 25 C-8 24.67 -8 24.34 -8 24 C-5.36 24 -2.72 24 0 24 C0 16.08 0 8.16 0 0 Z " fill="#235A79" transform="translate(225,141)"/>
<path d="M0 0 C0.33 0 0.66 0 1 0 C1 10.89 1 21.78 1 33 C3.97 32.505 3.97 32.505 7 32 C8.65407677 31.98572135 10.30961667 32.02458799 11.9609375 32.12109375 C12.75806152 32.16419678 13.55518555 32.2072998 14.37646484 32.25170898 C15.36598145 32.31302002 16.35549805 32.37433105 17.375 32.4375 C20.55125 32.623125 23.7275 32.80875 27 33 C27 41.25 27 49.5 27 58 C18.42 58 9.84 58 1 58 C-0.29663922 55.40672157 -0.12003569 53.53591932 -0.11352539 50.63232422 C-0.11344986 49.51131317 -0.11337433 48.39030212 -0.11329651 47.23532104 C-0.10813522 46.02071198 -0.10297394 44.80610291 -0.09765625 43.5546875 C-0.0962413 42.31453888 -0.09482635 41.07439026 -0.09336853 39.79666138 C-0.08871096 36.49881867 -0.07972439 33.20102454 -0.06866455 29.90319824 C-0.05843731 26.53833613 -0.05386809 23.17346692 -0.04882812 19.80859375 C-0.03778269 13.20571007 -0.02103247 6.60285901 0 0 Z " fill="#174568" transform="translate(250,188)"/>
<path d="M0 0 C7.26 0 14.52 0 22 0 C22.33 0.66 22.66 1.32 23 2 C23.66 1.67 24.32 1.34 25 1 C25 9.58 25 18.16 25 27 C16.75 27 8.5 27 0 27 C0 18.09 0 9.18 0 0 Z " fill="#1C5778" transform="translate(251,194)"/>
<path d="M0 0 C8.25 0 16.5 0 25 0 C25 8.58 25 17.16 25 26 C19.92625 26.0309375 19.92625 26.0309375 14.75 26.0625 C13.69006836 26.071604 12.63013672 26.08070801 11.53808594 26.09008789 C10.27399902 26.09383423 10.27399902 26.09383423 8.984375 26.09765625 C8.12553711 26.10289307 7.26669922 26.10812988 6.38183594 26.11352539 C4 26 4 26 0 25 C0 16.75 0 8.5 0 0 Z " fill="#2D9BAF" transform="translate(303,194)"/>
<path d="M0 0 C8.91 0 17.82 0 27 0 C27 8.25 27 16.5 27 25 C43.5 25 60 25 77 25 C77 17.08 77 9.16 77 1 C78 0 78 0 80.59204102 -0.11352539 C81.71795654 -0.10828857 82.84387207 -0.10305176 84.00390625 -0.09765625 C85.21884766 -0.09443359 86.43378906 -0.09121094 87.68554688 -0.08789062 C88.96494141 -0.07951172 90.24433594 -0.07113281 91.5625 -0.0625 C92.84576172 -0.05798828 94.12902344 -0.05347656 95.45117188 -0.04882812 C98.6341342 -0.03699555 101.81707274 -0.01905944 105 0 C105 8.25 105 16.5 105 25 C113.25 25 121.5 25 130 25 C131.24084307 27.48168614 131.12933103 29.16426199 131.1328125 31.9375 C131.13410156 32.91460937 131.13539063 33.89171875 131.13671875 34.8984375 C131.13285156 35.92195313 131.12898437 36.94546875 131.125 38 C131.12886719 39.02351563 131.13273438 40.04703125 131.13671875 41.1015625 C131.13478516 42.56722656 131.13478516 42.56722656 131.1328125 44.0625 C131.13168457 44.96097656 131.13055664 45.85945313 131.12939453 46.78515625 C131 49 131 49 130 51 C131.0372522 50.99214478 131.0372522 50.99214478 132.09545898 50.98413086 C135.20946352 50.963425 138.32345361 50.95036037 141.4375 50.9375 C142.52611328 50.92912109 143.61472656 50.92074219 144.73632812 50.91210938 C145.77080078 50.90888672 146.80527344 50.90566406 147.87109375 50.90234375 C148.82943115 50.89710693 149.78776855 50.89187012 150.77514648 50.88647461 C153 51 153 51 154 52 C154.09531163 53.3534059 154.1218872 54.71173984 154.12025452 56.0684967 C154.12231651 57.38316673 154.12231651 57.38316673 154.12442017 58.72439575 C154.12082489 59.69327728 154.11722961 60.66215881 154.11352539 61.66040039 C154.11367142 62.67491776 154.11381744 63.68943512 154.1139679 64.73469543 C154.11326829 68.10570373 154.10547368 71.47665754 154.09765625 74.84765625 C154.09579224 77.17793243 154.09436826 79.508209 154.09336853 81.83848572 C154.08954202 87.98537265 154.0797106 94.13223613 154.06866455 100.27911377 C154.05845329 106.54609866 154.05387152 112.81308732 154.04882812 119.08007812 C154.03808845 131.38672908 154.02101044 143.69336259 154 156 C153.67 156 153.34 156 153 156 C152.67 122.34 152.34 88.68 152 54 C144.41 53.67 136.82 53.34 129 53 C127.31699331 51.31699331 127.77190923 49.17991273 127.68359375 46.87109375 C127.62075195 45.31938477 127.62075195 45.31938477 127.55664062 43.73632812 C127.51732422 42.64771484 127.47800781 41.55910156 127.4375 40.4375 C127.39431641 39.34501953 127.35113281 38.25253906 127.30664062 37.12695312 C127.20017932 34.41810436 127.09816484 31.70916008 127 29 C125.9627478 28.96241577 125.9627478 28.96241577 124.90454102 28.92407227 C121.79032134 28.80847839 118.67643211 28.68558758 115.5625 28.5625 C114.47388672 28.52318359 113.38527344 28.48386719 112.26367188 28.44335938 C111.22919922 28.40146484 110.19472656 28.35957031 109.12890625 28.31640625 C108.17056885 28.27974854 107.21223145 28.24309082 106.22485352 28.20532227 C104 28 104 28 103 27 C102.84235595 25.22130274 102.74899323 23.43681524 102.68359375 21.65234375 C102.64169922 20.57275391 102.59980469 19.49316406 102.55664062 18.38085938 C102.51732422 17.24455078 102.47800781 16.10824219 102.4375 14.9375 C102.39431641 13.79732422 102.35113281 12.65714844 102.30664062 11.48242188 C102.20017262 8.65510492 102.09954738 5.82756908 102 3 C91.11 2.505 91.11 2.505 80 2 C80.07909306 9.15029823 80.07909306 9.15029823 80.18017578 16.30029297 C80.1851709 17.18861816 80.19016602 18.07694336 80.1953125 18.9921875 C80.20578613 19.90339355 80.21625977 20.81459961 80.22705078 21.75341797 C80 24 80 24 78 26 C75.78536987 26.24050903 75.78536987 26.24050903 72.99951172 26.22705078 C71.95858368 26.22689972 70.91765564 26.22674866 69.84518433 26.22659302 C68.1545134 26.21110916 68.1545134 26.21110916 66.4296875 26.1953125 C64.70264084 26.19106766 64.70264084 26.19106766 62.94070435 26.18673706 C59.25203188 26.17551408 55.56359947 26.15040556 51.875 26.125 C49.37890975 26.11497294 46.8828157 26.10584662 44.38671875 26.09765625 C38.25764491 26.07726678 32.12909215 26.03812151 26 26 C26 17.75 26 9.5 26 1 C17.75 1 9.5 1 1 1 C1 9.25 1 17.5 1 26 C-7.58 26 -16.16 26 -25 26 C-25 25.67 -25 25.34 -25 25 C-16.75 25 -8.5 25 0 25 C0 16.75 0 8.5 0 0 Z " fill="#71AFB7" transform="translate(199,115)"/>
<path d="M0 0 C0.33 0 0.66 0 1 0 C1 16.5 1 33 1 50 C7.93 50 14.86 50 22 50 C22 58.25 22 66.5 22 75 C16.8334375 75.0309375 16.8334375 75.0309375 11.5625 75.0625 C10.47525635 75.071604 9.3880127 75.08070801 8.26782227 75.09008789 C7.41760498 75.09258545 6.5673877 75.09508301 5.69140625 75.09765625 C4.81685791 75.10289307 3.94230957 75.10812988 3.04125977 75.11352539 C1 75 1 75 0 74 C-0.09443335 71.69946165 -0.11742128 69.39597827 -0.11352539 67.09350586 C-0.11367142 66.37159561 -0.11381744 65.64968536 -0.1139679 64.90589905 C-0.11326869 62.50885053 -0.10547595 60.11187877 -0.09765625 57.71484375 C-0.0957921 56.05717511 -0.09436818 54.39950593 -0.09336853 52.74183655 C-0.08954312 48.37045786 -0.07971265 43.99911219 -0.06866455 39.62774658 C-0.05845092 35.17045539 -0.05387101 30.71315889 -0.04882812 26.25585938 C-0.0380904 17.50389107 -0.02101371 8.75194964 0 0 Z " fill="#3592A4" transform="translate(303,222)"/>
<path d="M0 0 C3.81248426 -0.02887236 7.6249407 -0.04675492 11.4375 -0.0625 C12.52611328 -0.07087891 13.61472656 -0.07925781 14.73632812 -0.08789062 C15.77080078 -0.09111328 16.80527344 -0.09433594 17.87109375 -0.09765625 C18.82943115 -0.10289307 19.78776855 -0.10812988 20.77514648 -0.11352539 C23 0 23 0 24 1 C24.08713831 2.70772358 24.10700007 4.41898649 24.09765625 6.12890625 C24.09515869 7.06033447 24.09266113 7.9917627 24.09008789 8.95141602 C24.08098389 10.14307373 24.07187988 11.33473145 24.0625 12.5625 C24.041875 16.336875 24.02125 20.11125 24 24 C16.08 24 8.16 24 0 24 C-1.01044795 20.96865616 -1.05032949 19.25604057 -0.87890625 16.11328125 C-0.83056641 15.17548828 -0.78222656 14.23769531 -0.73242188 13.27148438 C-0.67634766 12.29501953 -0.62027344 11.31855469 -0.5625 10.3125 C-0.51029297 9.32443359 -0.45808594 8.33636719 -0.40429688 7.31835938 C-0.27464694 4.87858324 -0.13968258 2.43921895 0 0 Z " fill="#31BDC4" transform="translate(303,143)"/>
<path d="M0 0 C7.26 0 14.52 0 22 0 C22 8.25 22 16.5 22 25 C19.17588235 25.94137255 17.47081968 26.11725382 14.55078125 26.09765625 C13.78677002 26.09515869 13.02275879 26.09266113 12.2355957 26.09008789 C11.27097412 26.08098389 10.30635254 26.07187988 9.3125 26.0625 C4.7028125 26.0315625 4.7028125 26.0315625 0 26 C0 17.42 0 8.84 0 0 Z " fill="#34C8C7" transform="translate(329,168)"/>
<path d="M0 0 C9 0 9 0 11.4453125 2.046875 C11.99960938 2.93890625 12.55390625 3.8309375 13.125 4.75 C13.99511719 6.07257813 13.99511719 6.07257813 14.8828125 7.421875 C16 10 16 10 15.6796875 12.328125 C15.45539063 12.87984375 15.23109375 13.4315625 15 14 C15.99 14.33 16.98 14.66 18 15 C18 15.99 18 16.98 18 18 C16.3125 19.125 16.3125 19.125 14 20 C11.525 19.01 11.525 19.01 9 18 C9 27.9 9 37.8 9 48 C6.03 48 3.06 48 0 48 C0 32.16 0 16.32 0 0 Z " fill="#30414B" transform="translate(153,322)"/>
<path d="M0 0 C3.09375 -0.020625 6.1875 -0.04125 9.375 -0.0625 C10.34872559 -0.071604 11.32245117 -0.08070801 12.32568359 -0.09008789 C13.47544678 -0.09383423 13.47544678 -0.09383423 14.6484375 -0.09765625 C15.43395996 -0.10289307 16.21948242 -0.10812988 17.02880859 -0.11352539 C19 0 19 0 21 1 C21.96088383 3.88265149 22.11670941 5.67662271 22.09765625 8.66796875 C22.09515869 9.47258545 22.09266113 10.27720215 22.09008789 11.10620117 C22.08098389 12.12302979 22.07187988 13.1398584 22.0625 14.1875 C22.041875 17.425625 22.02125 20.66375 22 24 C14.41 24.33 6.82 24.66 -1 25 C-0.67 16.75 -0.34 8.5 0 0 Z " fill="#2DB5C4" transform="translate(279,117)"/>
<path d="M0 0 C2.97 0 5.94 0 9 0 C13.42857143 7.28571429 13.42857143 7.28571429 14 12 C13.01 12.33 12.02 12.66 11 13 C11.33 14.32 11.66 15.64 12 17 C11.01 17 10.02 17 9 17 C8.67 27.23 8.34 37.46 8 48 C5.36 48 2.72 48 0 48 C0 32.16 0 16.32 0 0 Z " fill="#2F414B" transform="translate(299,322)"/>
<path d="M0 0 C0.33 1.32 0.66 2.64 1 4 C-1.76565382 4.92188461 -3.38283702 5.11785222 -6.23046875 5.09765625 C-7.03291016 5.09443359 -7.83535156 5.09121094 -8.66210938 5.08789062 C-9.49548828 5.07951172 -10.32886719 5.07113281 -11.1875 5.0625 C-12.03248047 5.05798828 -12.87746094 5.05347656 -13.74804688 5.04882812 C-15.83206155 5.03705403 -17.91603977 5.0191189 -20 5 C-21.1063682 9.51827948 -21.21943728 13.99502297 -21.31640625 18.62109375 C-21.33727798 19.46608429 -21.35814972 20.31107483 -21.37965393 21.18167114 C-21.44571559 23.93352322 -21.50463392 26.68546418 -21.5625 29.4375 C-21.58334656 30.37141571 -21.60419312 31.30533142 -21.62567139 32.26754761 C-21.90199201 44.69864474 -22.09956895 57.12825734 -22.125 69.5625 C-22.12959229 70.82054443 -22.13418457 72.07858887 -22.13891602 73.37475586 C-22.13690186 74.51050049 -22.1348877 75.64624512 -22.1328125 76.81640625 C-22.13168457 77.80068604 -22.13055664 78.78496582 -22.12939453 79.79907227 C-22.24599643 81.97546628 -22.24599643 81.97546628 -21 83 C-20.89949758 85.94708569 -20.86130428 88.86563802 -20.875 91.8125 C-20.87113281 92.63298828 -20.86726562 93.45347656 -20.86328125 94.29882812 C-20.86457031 95.09353516 -20.86585938 95.88824219 -20.8671875 96.70703125 C-20.86831543 97.4338208 -20.86944336 98.16061035 -20.87060547 98.90942383 C-21.00305032 101.04928275 -21.41549911 102.94147724 -22 105 C-20.14523183 104.88426734 -18.29118726 104.75691885 -16.4375 104.625 C-14.88869141 104.52058594 -14.88869141 104.52058594 -13.30859375 104.4140625 C-9.67659842 103.95952707 -6.49064109 103.08284705 -3 102 C-3.03552979 101.31188232 -3.07105957 100.62376465 -3.10766602 99.91479492 C-3.82496929 85.52202681 -4.12560636 71.37312733 -3 57 C-2.34 57 -1.68 57 -1 57 C-1 73.17 -1 89.34 -1 106 C-8.59 106 -16.18 106 -24 106 C-24.33 71.68 -24.66 37.36 -25 2 C-16.75 2 -8.5 2 0 2 C0 1.34 0 0.68 0 0 Z " fill="#070520" transform="translate(175,165)"/>
<path d="M0 0 C11.22 0 22.44 0 34 0 C34 2.31 34 4.62 34 7 C31.54159395 7.02691685 29.08348118 7.04679802 26.625 7.0625 C25.92632812 7.07087891 25.22765625 7.07925781 24.5078125 7.08789062 C19.2265625 7.11328125 19.2265625 7.11328125 17 6 C15.62657169 5.9310528 14.24997898 5.91532292 12.875 5.9375 C11.59625 5.958125 10.3175 5.97875 9 6 C6.08639692 10.77830905 5.80123349 13.55106131 7 19 C5.68 19.33 4.36 19.66 3 20 C2.67 28.91 2.34 37.82 2 47 C1.34 47 0.68 47 0 47 C0 31.49 0 15.98 0 0 Z " fill="#314149" transform="translate(205,323)"/>
<path d="M0 0 C2.97 0 5.94 0 9 0 C9 10.56 9 21.12 9 32 C7.02 32.495 7.02 32.495 5 33 C4.67 33.66 4.34 34.32 4 35 C3.34 34.67 2.68 34.34 2 34 C1.67 34.66 1.34 35.32 1 36 C-0.53297297 32.93405406 -0.12131455 29.72888147 -0.09765625 26.3671875 C-0.0962413 25.61535187 -0.09482635 24.86351624 -0.09336853 24.08889771 C-0.08776465 21.6842249 -0.07521157 19.27964473 -0.0625 16.875 C-0.0574855 15.24609509 -0.0529225 13.61718873 -0.04882812 11.98828125 C-0.03779397 7.99215173 -0.02052679 3.99609158 0 0 Z " fill="#2C3A42" transform="translate(248,323)"/>
<path d="M0 0 C4.52061442 -0.11668418 9.04083847 -0.18741645 13.5625 -0.25 C14.83931641 -0.28351563 16.11613281 -0.31703125 17.43164062 -0.3515625 C24.49112906 -0.42490783 29.34828116 -0.43367599 35 4 C37.98863852 7.66349238 38.32545535 10.33513993 38 15 C37.5875 14.38125 37.175 13.7625 36.75 13.125 C34.94426121 10.93231719 33.5909466 10.07211583 31 9 C30.67 10.32 30.34 11.64 30 13 C29.34 12.67 28.68 12.34 28 12 C28 11.34 28 10.68 28 10 C27.12263184 9.92483154 27.12263184 9.92483154 26.22753906 9.84814453 C23.56754819 9.61548765 20.90884651 9.37037564 18.25 9.125 C16.86941406 9.00705078 16.86941406 9.00705078 15.4609375 8.88671875 C14.57148437 8.80292969 13.68203125 8.71914063 12.765625 8.6328125 C11.54020996 8.52283936 11.54020996 8.52283936 10.29003906 8.41064453 C7.88237951 7.97890856 6.12090608 7.19673616 4 6 C4 5.01 4 4.02 4 3 C3.34 3 2.68 3 2 3 C1.67 3.99 1.34 4.98 1 6 C0 5 0 5 -0.0625 2.4375 C-0.041875 1.633125 -0.02125 0.82875 0 0 Z " fill="#374853" transform="translate(107,323)"/>
<path d="M0 0 C0.66 0 1.32 0 2 0 C2 16.5 2 33 2 50 C-13.18 50 -28.36 50 -44 50 C-44 42.41 -44 34.82 -44 27 C-43.01 27 -42.02 27 -41 27 C-40.95758277 29.33294775 -40.95907063 31.66702567 -41 34 C-41.495 34.495 -41.495 34.495 -42 35 C-42.33 38.63 -42.66 42.26 -43 46 C-29.14 46.33 -15.28 46.66 -1 47 C-0.67 31.49 -0.34 15.98 0 0 Z " fill="#0D1234" transform="translate(223,246)"/>
<path d="M0 0 C1.98 0.66 3.96 1.32 6 2 C6.33 1.34 6.66 0.68 7 0 C10.76687864 0 11.91190305 0.23537317 15 2 C15.61834421 12.61490897 15.61834421 12.61490897 13.4375 17.5 C10.44317266 20.57110496 7.88098979 22.16535028 4 24 C3.01 24 2.02 24 1 24 C1 23.34 1 22.68 1 22 C-0.32 22 -1.64 22 -3 22 C-2.67 20.68 -2.34 19.36 -2 18 C-5.96 17.67 -9.92 17.34 -14 17 C-14 16.67 -14 16.34 -14 16 C-13.10796875 15.97421875 -12.2159375 15.9484375 -11.296875 15.921875 C-10.12640625 15.86515625 -8.9559375 15.8084375 -7.75 15.75 C-6.00976562 15.68039062 -6.00976562 15.68039062 -4.234375 15.609375 C-0.50076258 14.90594078 0.68676154 13.94563458 3 11 C4.35490794 7.76906568 3.83650281 5.34601124 3 2 C2.01 1.67 1.02 1.34 0 1 C0 0.67 0 0.34 0 0 Z " fill="#3E4E57" transform="translate(131,332)"/>
<path d="M0 0 C8.25 0 16.5 0 25 0 C26.24084307 2.48168614 26.12933103 4.16426199 26.1328125 6.9375 C26.13410156 7.91460937 26.13539063 8.89171875 26.13671875 9.8984375 C26.13285156 10.92195312 26.12898438 11.94546875 26.125 13 C26.13080078 14.53527344 26.13080078 14.53527344 26.13671875 16.1015625 C26.13542969 17.07867187 26.13414062 18.05578125 26.1328125 19.0625 C26.13168457 19.96097656 26.13055664 20.85945313 26.12939453 21.78515625 C26 24 26 24 25 26 C25.69150146 25.99476318 26.38300293 25.98952637 27.09545898 25.98413086 C30.20946352 25.963425 33.32345361 25.95036037 36.4375 25.9375 C37.52611328 25.92912109 38.61472656 25.92074219 39.73632812 25.91210938 C40.77080078 25.90888672 41.80527344 25.90566406 42.87109375 25.90234375 C43.82943115 25.89710693 44.78776855 25.89187012 45.77514648 25.88647461 C48 26 48 26 49 27 C49.09531163 28.3534059 49.1218872 29.71173984 49.12025452 31.0684967 C49.12162918 31.94494339 49.12300385 32.82139008 49.12442017 33.72439575 C49.11902725 35.17771805 49.11902725 35.17771805 49.11352539 36.66040039 C49.11367142 37.67491776 49.11381744 38.68943512 49.1139679 39.73469543 C49.11326829 43.10570373 49.10547368 46.47665754 49.09765625 49.84765625 C49.09579224 52.17793243 49.09436826 54.508209 49.09336853 56.83848572 C49.08954202 62.98537265 49.0797106 69.13223613 49.06866455 75.27911377 C49.05845329 81.54609866 49.05387152 87.81308732 49.04882812 94.08007812 C49.03808845 106.38672908 49.02101044 118.69336259 49 131 C48.67 131 48.34 131 48 131 C47.67 97.34 47.34 63.68 47 29 C39.41 28.67 31.82 28.34 24 28 C23.27412466 24.37062331 22.87920141 21.72378217 22.90234375 18.13671875 C22.90484131 17.33709717 22.90733887 16.53747559 22.90991211 15.71362305 C22.91901611 14.71500244 22.92812012 13.71638184 22.9375 12.6875 C22.958125 9.490625 22.97875 6.29375 23 3 C11.615 2.505 11.615 2.505 0 2 C0 1.34 0 0.68 0 0 Z " fill="#95D8D7" transform="translate(304,140)"/>
<path d="M0 0 C0.33 0 0.66 0 1 0 C1 15.84 1 31.68 1 48 C3.64 48 6.28 48 9 48 C9 37.77 9 27.54 9 17 C9.66 16.67 10.32 16.34 11 16 C11.66 16.33 12.32 16.66 13 17 C12.79375 16.38125 12.5875 15.7625 12.375 15.125 C12.25125 14.42375 12.1275 13.7225 12 13 C12.66 12.34 13.32 11.68 14 11 C14.33 10.34 14.66 9.68 15 9 C24 23.73786408 24 23.73786408 24 27.1875 C22.56788425 29.78320981 20.5892785 30.67216487 18 32 C18 31.34 18 30.68 18 30 C17.01 30 16.02 30 15 30 C13.68 27.69 12.36 25.38 11 23 C10.67 31.58 10.34 40.16 10 49 C6.7 49 3.4 49 0 49 C0 32.83 0 16.66 0 0 Z " fill="#7B868D" transform="translate(298,322)"/>
<path d="M0 0 C3.63 0 7.26 0 11 0 C11.02505615 1.00901367 11.0501123 2.01802734 11.07592773 3.05761719 C11.17022409 6.80741696 11.27039021 10.55704108 11.37231445 14.30664062 C11.41557931 15.92834357 11.45726028 17.55008958 11.49731445 19.171875 C11.55522214 21.50534027 11.61885698 23.83859043 11.68359375 26.171875 C11.70030624 26.89493835 11.71701874 27.61800171 11.73423767 28.36297607 C11.76964706 33.2941896 11.76964706 33.2941896 13 38 C15.99615946 39.3045656 15.99615946 39.3045656 19 40 C19 40.33 19 40.66 19 41 C17.783125 40.9175 16.56625 40.835 15.3125 40.75 C11.83360474 40.72528316 11.06167336 40.95888443 8 43 C7.34 43.66 6.68 44.32 6 45 C3.67052817 42.88229834 2.11249155 40.96664412 1 38 C1.33 37.01 1.66 36.02 2 35 C3.875 34.375 3.875 34.375 6 34 C7.485 33.505 7.485 33.505 9 33 C9.33 22.44 9.66 11.88 10 1 C7.03 1 4.06 1 1 1 C1 10.9 1 20.8 1 31 C0.67 31 0.34 31 0 31 C0 20.77 0 10.54 0 0 Z " fill="#727E83" transform="translate(247,322)"/>
<path d="M0 0 C8.25 0 16.5 0 25 0 C25 9.24 25 18.48 25 28 C24.67 27.34 24.34 26.68 24 26 C23.34 25.67 22.68 25.34 22 25 C22.00523682 24.40985107 22.01047363 23.81970215 22.01586914 23.21166992 C22.03666047 20.53695745 22.04966701 17.86226199 22.0625 15.1875 C22.07087891 14.25873047 22.07925781 13.32996094 22.08789062 12.37304688 C22.09111328 11.48037109 22.09433594 10.58769531 22.09765625 9.66796875 C22.10289307 8.84578857 22.10812988 8.0236084 22.11352539 7.17651367 C22.08741524 4.81827404 22.08741524 4.81827404 21 2 C19.87851563 2.01740234 19.87851563 2.01740234 18.734375 2.03515625 C17.74953125 2.04417969 16.7646875 2.05320312 15.75 2.0625 C14.28820312 2.07990234 14.28820312 2.07990234 12.796875 2.09765625 C10.34241322 2.01195577 8.33831086 1.70706066 6 1 C5.690625 1.639375 5.38125 2.27875 5.0625 2.9375 C4 5 4 5 3 6 C2.8798415 7.391123 2.82057503 8.78764668 2.7890625 10.18359375 C2.76070312 11.02857422 2.73234375 11.87355469 2.703125 12.74414062 C2.65116097 14.53560067 2.60685405 16.32729965 2.5703125 18.11914062 C2.52390625 19.38854492 2.52390625 19.38854492 2.4765625 20.68359375 C2.45674316 21.46275146 2.43692383 22.24190918 2.41650391 23.04467773 C2 25 2 25 -1 27 C-1.33 26.34 -1.66 25.68 -2 25 C-1.34 25 -0.68 25 0 25 C0 16.75 0 8.5 0 0 Z " fill="#193B56" transform="translate(200,116)"/>
<path d="M0 0 C8.91 0 17.82 0 27 0 C27 2.31 27 4.62 27 7 C22.38 7 17.76 7 13 7 C13 6.67 13 6.34 13 6 C12.24074219 5.95101563 11.48148438 5.90203125 10.69921875 5.8515625 C9.20841797 5.73941406 9.20841797 5.73941406 7.6875 5.625 C6.70136719 5.55539062 5.71523437 5.48578125 4.69921875 5.4140625 C2 5 2 5 -1 3 C-0.67 2.01 -0.34 1.02 0 0 Z " fill="#314049" transform="translate(214,363)"/>
<path d="M0 0 C4.20532472 1.52394795 6.25004166 4.6152865 8.75 8.125 C9.16121094 8.68832031 9.57242188 9.25164062 9.99609375 9.83203125 C11.00476085 11.21601634 12.00339286 12.60730541 13 14 C12.67 14.66 12.34 15.32 12 16 C8.20411134 15.45773019 6.52788007 13.79872437 4 11 C3.855625 11.78375 3.71125 12.5675 3.5625 13.375 C3 16 3 16 2 18 C-2 13.25 -2 13.25 -2 11 C-2.66 11 -3.32 11 -4 11 C-4.33 19.91 -4.66 28.82 -5 38 C-8.3 38 -11.6 38 -15 38 C-15 37.67 -15 37.34 -15 37 C-12.03 37 -9.06 37 -6 37 C-6 27.1 -6 17.2 -6 7 C-3.03 7.495 -3.03 7.495 0 8 C0.99 7.67 1.98 7.34 3 7 C2.67 6.01 2.34 5.02 2 4 C1.34 3.67 0.68 3.34 0 3 C0 2.01 0 1.02 0 0 Z " fill="#4F5E65" transform="translate(168,333)"/>
<path d="M0 0 C0.33 0 0.66 0 1 0 C1 18.15 1 36.3 1 55 C13.375 54.505 13.375 54.505 26 54 C26.33 55.32 26.66 56.64 27 58 C18.42 58 9.84 58 1 58 C-0.29663922 55.40672157 -0.12003569 53.53591932 -0.11352539 50.63232422 C-0.11344986 49.51131317 -0.11337433 48.39030212 -0.11329651 47.23532104 C-0.10813522 46.02071198 -0.10297394 44.80610291 -0.09765625 43.5546875 C-0.0962413 42.31453888 -0.09482635 41.07439026 -0.09336853 39.79666138 C-0.08871096 36.49881867 -0.07972439 33.20102454 -0.06866455 29.90319824 C-0.05843731 26.53833613 -0.05386809 23.17346692 -0.04882812 19.80859375 C-0.03778269 13.20571007 -0.02103247 6.60285901 0 0 Z " fill="#163C60" transform="translate(250,188)"/>
<path d="M0 0 C0.66 0 1.32 0 2 0 C2 6.93 2 13.86 2 21 C0.02 21 -1.96 21 -4 21 C-4.66 19.35 -5.32 17.7 -6 16 C-6.99 16 -7.98 16 -9 16 C-9 15.34 -9 14.68 -9 14 C-9.66 13.67 -10.32 13.34 -11 13 C-9.68 12.34 -8.36 11.68 -7 11 C-7 11.66 -7 12.32 -7 13 C-6.34 12.34 -5.68 11.68 -5 11 C-4.34 11.33 -3.68 11.66 -3 12 C-2.86722656 11.21753906 -2.73445312 10.43507813 -2.59765625 9.62890625 C-2.42105469 8.61699219 -2.24445313 7.60507812 -2.0625 6.5625 C-1.88847656 5.55316406 -1.71445313 4.54382813 -1.53515625 3.50390625 C-1 1 -1 1 0 0 Z " fill="#2D3E46" transform="translate(192,349)"/>
<path d="M0 0 C0.66 0 1.32 0 2 0 C2 4.29 2 8.58 2 13 C2.66 13 3.32 13 4 13 C3.96970703 13.61520508 3.93941406 14.23041016 3.90820312 14.86425781 C3.77113187 17.65945704 3.63555061 20.45472663 3.5 23.25 C3.45230469 24.21808594 3.40460938 25.18617188 3.35546875 26.18359375 C3.31035156 27.11816406 3.26523438 28.05273438 3.21875 29.015625 C3.17685547 29.87446289 3.13496094 30.73330078 3.09179688 31.61816406 C3.00986308 33.74408447 3 35.8725013 3 38 C2.89802825 39.89721132 2.77168647 41.79322122 2.625 43.6875 C2.52058594 45.14736328 2.52058594 45.14736328 2.4140625 46.63671875 C2.20910156 47.80654297 2.20910156 47.80654297 2 49 C1.01 49.495 1.01 49.495 0 50 C0 33.5 0 17 0 0 Z " fill="#121E41" transform="translate(200,223)"/>
<path d="M0 0 C6.93 0 13.86 0 21 0 C21 8.25 21 16.5 21 25 C14.07 25 7.14 25 0 25 C-0.33 24.34 -0.66 23.68 -1 23 C0.28777344 22.93941406 1.57554687 22.87882812 2.90234375 22.81640625 C4.58074159 22.73201753 6.25912636 22.6473687 7.9375 22.5625 C8.78763672 22.52318359 9.63777344 22.48386719 10.51367188 22.44335938 C11.32255859 22.40146484 12.13144531 22.35957031 12.96484375 22.31640625 C14.08814087 22.26141968 14.08814087 22.26141968 15.23413086 22.20532227 C17.02461326 22.18228937 17.02461326 22.18228937 18 21 C18.09956009 18.7101179 18.1296872 16.41704063 18.125 14.125 C18.12757813 12.86945313 18.13015625 11.61390625 18.1328125 10.3203125 C18.15407077 6.99878218 18.15407077 6.99878218 17 4 C17.33 3.01 17.66 2.02 18 1 C12.06 1 6.12 1 0 1 C0 0.67 0 0.34 0 0 Z " fill="#4F8990" transform="translate(304,272)"/>
<path d="M0 0 C2.98069005 1.88254109 3.50949898 3.11667781 4.375 6.5 C4.5 9.3125 4.5 9.3125 4.375 11.5 C3.385 11.5 2.395 11.5 1.375 11.5 C1.375 12.16 1.375 12.82 1.375 13.5 C-2.375 14.625 -2.375 14.625 -4.625 13.5 C-7.06540812 9.97496605 -7.08123968 6.68219705 -6.625 2.5 C-4.38445087 -0.23844893 -3.49087784 -0.66492911 0 0 Z " fill="#35444D" transform="translate(390.625,336.5)"/>
<path d="M0 0 C0.33 0 0.66 0 1 0 C1.33 7.92 1.66 15.84 2 24 C2.66 24.33 3.32 24.66 4 25 C3.67 30.94 3.34 36.88 3 43 C3.99 43.33 4.98 43.66 6 44 C5.67 44.99 5.34 45.98 5 47 C5.66 47.33 6.32 47.66 7 48 C6.34 48.66 5.68 49.32 5 50 C3.35 50 1.7 50 0 50 C0 33.5 0 17 0 0 Z " fill="#319BA6" transform="translate(329,221)"/>
<path d="M0 0 C1.32 0 2.64 0 4 0 C4 9.57 4 19.14 4 29 C3.01 29 2.02 29 1 29 C-0.38308781 26.23382437 -0.11210196 23.98982 -0.09765625 20.8984375 C-0.09443359 19.68671875 -0.09121094 18.475 -0.08789062 17.2265625 C-0.07951172 15.95554687 -0.07113281 14.68453125 -0.0625 13.375 C-0.05798828 12.09625 -0.05347656 10.8175 -0.04882812 9.5 C-0.03701203 6.33328708 -0.02053815 3.16666644 0 0 Z " fill="#30444E" transform="translate(250,325)"/>
<path d="M0 0 C0.33 1.32 0.66 2.64 1 4 C-1.76565382 4.92188461 -3.38283702 5.11785222 -6.23046875 5.09765625 C-7.03291016 5.09443359 -7.83535156 5.09121094 -8.66210938 5.08789062 C-9.49548828 5.07951172 -10.32886719 5.07113281 -11.1875 5.0625 C-12.03248047 5.05798828 -12.87746094 5.05347656 -13.74804688 5.04882812 C-15.83206155 5.03705403 -17.91603977 5.0191189 -20 5 C-21.00643768 9.22990358 -21.2125027 13.37974123 -21.31640625 17.70703125 C-21.33718735 18.43242599 -21.35796844 19.15782074 -21.37937927 19.90519714 C-21.44442215 22.20754113 -21.50354773 24.50999282 -21.5625 26.8125 C-21.60572835 28.37956814 -21.64934398 29.94662565 -21.69335938 31.51367188 C-21.80005668 35.34233936 -21.90144969 39.1711145 -22 43 C-22.33 43 -22.66 43 -23 43 C-23 29.8 -23 16.6 -23 3 C-23.66 2.67 -24.32 2.34 -25 2 C-16.75 2 -8.5 2 0 2 C0 1.34 0 0.68 0 0 Z " fill="#0E112F" transform="translate(175,165)"/>
<path d="M0 0 C0.66 0 1.32 0 2 0 C1.95875 1.03125 1.9175 2.0625 1.875 3.125 C1.77171983 6.84479959 1.77171983 6.84479959 3 9.46875 C4.49616294 14.75207538 4.20860707 19.91481533 4.125 25.375 C4.11597656 26.49261719 4.10695312 27.61023438 4.09765625 28.76171875 C4.07418346 31.50803462 4.04134728 34.25390472 4 37 C4.66 37.33 5.32 37.66 6 38 C4.02 38 2.04 38 0 38 C0 25.46 0 12.92 0 0 Z " fill="#324046" transform="translate(153,332)"/>
<path d="M0 0 C0.33 0 0.66 0 1 0 C1.33 1.65 1.66 3.3 2 5 C3.32 4.34 4.64 3.68 6 3 C6.33 3.99 6.66 4.98 7 6 C6.01 7.485 6.01 7.485 5 9 C5.31730524 12.63939932 5.31730524 12.63939932 6 16 C4.68 16.33 3.36 16.66 2 17 C1.67 25.91 1.34 34.82 1 44 C0.67 44 0.34 44 0 44 C0 29.48 0 14.96 0 0 Z " fill="#283941" transform="translate(206,326)"/>
<path d="M0 0 C11.55 0 23.1 0 35 0 C35 2.97 35 5.94 35 9 C26.75 9 18.5 9 10 9 C10 12.63 10 16.26 10 20 C9.67 20 9.34 20 9 20 C8.67 15.38 8.34 10.76 8 6 C16.75 5.875 16.75 5.875 19 7 C21.54615009 7.23172827 24.07396225 7.41894529 26.625 7.5625 C27.33140625 7.60568359 28.0378125 7.64886719 28.765625 7.69335938 C30.51018537 7.79944751 32.25506697 7.90022889 34 8 C34 5.69 34 3.38 34 1 C22.78 1 11.56 1 0 1 C0 0.67 0 0.34 0 0 Z " fill="#626D72" transform="translate(205,322)"/>
<path d="M0 0 C2.64 0 5.28 0 8 0 C7.360625 0.12375 6.72125 0.2475 6.0625 0.375 C5.381875 0.58125 4.70125 0.7875 4 1 C2.86980573 3.26038854 2.84731043 4.57118826 2.79467773 7.08251953 C2.77473251 7.92324005 2.75478729 8.76396057 2.73423767 9.63015747 C2.71752518 10.53853363 2.70081268 11.44690979 2.68359375 12.3828125 C2.66281265 13.31221649 2.64203156 14.24162048 2.62062073 15.19918823 C2.55512354 18.1743821 2.49623948 21.14966577 2.4375 24.125 C2.39431494 26.13933228 2.35070066 28.15365541 2.30664062 30.16796875 C2.19944197 35.11188663 2.09817499 40.05589503 2 45 C1.01 45.495 1.01 45.495 0 46 C0 30.82 0 15.64 0 0 Z " fill="#253239" transform="translate(299,323)"/>
<path d="M0 0 C0.33 0 0.66 0 1 0 C1 16.83 1 33.66 1 51 C-4.61 51 -10.22 51 -16 51 C-16 50.34 -16 49.68 -16 49 C-15.08476562 48.86722656 -14.16953125 48.73445313 -13.2265625 48.59765625 C-12.03804688 48.42105469 -10.84953125 48.24445313 -9.625 48.0625 C-8.44164062 47.88847656 -7.25828125 47.71445312 -6.0390625 47.53515625 C-3.09297619 47.16537214 -3.09297619 47.16537214 -1 46 C-0.67 30.82 -0.34 15.64 0 0 Z " fill="#3F98A1" transform="translate(351,221)"/>
<path d="M0 0 C0.33 0.66 0.66 1.32 1 2 C0.67 2.66 0.34 3.32 0 4 C1.32 4.33 2.64 4.66 4 5 C4 5.66 4 6.32 4 7 C4.33 7.33 4.66 7.66 5 8 C4.52760335 12.13347071 2.94825043 15.35761877 1 19 C0.67 17.68 0.34 16.36 0 15 C0.66 15 1.32 15 2 15 C1.67 14.34 1.34 13.68 1 13 C0.01 13 -0.98 13 -2 13 C-2 13.66 -2 14.32 -2 15 C-2.66 15 -3.32 15 -4 15 C-4.33 15.66 -4.66 16.32 -5 17 C-5.33 16.34 -5.66 15.68 -6 15 C-6.66 14.67 -7.32 14.34 -8 14 C-7.59007812 13.32453125 -7.18015625 12.6490625 -6.7578125 11.953125 C-6.21898437 11.06109375 -5.68015625 10.1690625 -5.125 9.25 C-4.59132813 8.36828125 -4.05765625 7.4865625 -3.5078125 6.578125 C-2.24403334 4.41725907 -1.08501165 2.25429605 0 0 Z " fill="#4B585F" transform="translate(333,336)"/>
<path d="M0 0 C1.99954746 -0.04254356 4.00041636 -0.04080783 6 0 C6.33 0.33 6.66 0.66 7 1 C8.32 0.67 9.64 0.34 11 0 C11.99 2.97 12.98 5.94 14 9 C10.37 9 6.74 9 3 9 C2.01 6.03 1.02 3.06 0 0 Z " fill="#4A5A60" transform="translate(392,362)"/>
<path d="M0 0 C4.29 0 8.58 0 13 0 C12.34 1.65 11.68 3.3 11 5 C12.32 5 13.64 5 15 5 C15 5.66 15 6.32 15 7 C9.72 7 4.44 7 -1 7 C-0.67 4.69 -0.34 2.38 0 0 Z " fill="#2D3C47" transform="translate(117,349)"/>
<path d="M0 0 C0.99 0 1.98 0 3 0 C3.33 9.9 3.66 19.8 4 30 C2.68 30 1.36 30 0 30 C0 20.1 0 10.2 0 0 Z " fill="#2A3A42" transform="translate(341,340)"/>
<path d="M0 0 C1.5625 1.6875 1.5625 1.6875 3 4 C2.6875 6.75 2.6875 6.75 2 9 C2.66 9.33 3.32 9.66 4 10 C4.625 12.5625 4.625 12.5625 5 15 C0.125 14.125 0.125 14.125 -1 13 C-3.52259061 14.97420135 -3.9929808 15.96745642 -4.6875 19.1875 C-4.8421875 20.5796875 -4.8421875 20.5796875 -5 22 C-6.32 22.33 -7.64 22.66 -9 23 C-7.6114552 18.74436732 -6.10493885 14.55371274 -4.5 10.375 C-3.86578125 8.71597656 -3.86578125 8.71597656 -3.21875 7.0234375 C-2.24416722 4.60572252 -1.21360265 2.30359762 0 0 Z " fill="#45535C" transform="translate(371,330)"/>
<path d="M0 0 C2 1.375 2 1.375 4 3 C4 3.66 4 4.32 4 5 C5.65 5.33 7.3 5.66 9 6 C9.33 7.98 9.66 9.96 10 12 C3.73607748 13.44552058 3.73607748 13.44552058 0.625 11.5625 C-1.63216225 8.00312876 -1.72070132 5.18948026 -2 1 C-1.34 0.67 -0.68 0.34 0 0 Z " fill="#2D3F4A" transform="translate(172,343)"/>
<path d="M0 0 C0 9.9 0 19.8 0 30 C-1.32 29.34 -2.64 28.68 -4 28 C-3.67 19.09 -3.34 10.18 -3 1 C-1 0 -1 0 0 0 Z " fill="#2E3F45" transform="translate(288,329)"/>
<path d="M0 0 C0.33 0 0.66 0 1 0 C1.33 11.55 1.66 23.1 2 35 C0.02 35.495 0.02 35.495 -2 36 C-3.75422772 37.97670607 -3.75422772 37.97670607 -5 40 C-5 39.01 -5 38.02 -5 37 C-5.66 37 -6.32 37 -7 37 C-7.66 35.68 -8.32 34.36 -9 33 C-6.525 32.505 -6.525 32.505 -4 32 C-3.67 30.02 -3.34 28.04 -3 26 C-2.34 26.33 -1.68 26.66 -1 27 C-0.67 18.09 -0.34 9.18 0 0 Z " fill="#869095" transform="translate(184,323)"/>
<path d="M0 0 C0.99 0 1.98 0 3 0 C3.04241723 2.33294775 3.04092937 4.66702567 3 7 C2.67 7.33 2.34 7.66 2 8 C1.76636119 9.84891946 1.58696365 11.70488031 1.4375 13.5625 C1.293125 15.356875 1.14875 17.15125 1 19 C7.6 19.33 14.2 19.66 21 20 C21 20.33 21 20.66 21 21 C22.98 21.33 24.96 21.66 27 22 C27 22.33 27 22.66 27 23 C18.09 23 9.18 23 0 23 C0 15.41 0 7.82 0 0 Z " fill="#0A0A2C" transform="translate(179,273)"/>
<path d="M0 0 C3.48331435 3.01887244 4.79157144 5.56909529 6 10 C5.236875 10.268125 4.47375 10.53625 3.6875 10.8125 C1.12619116 11.94424112 -0.19692938 12.91223401 -2 15 C-2.33 14.01 -2.66 13.02 -3 12 C-3.66 12 -4.32 12 -5 12 C-4.67 10.35 -4.34 8.7 -4 7 C-3.01 7.33 -2.02 7.66 -1 8 C-1.309375 7.071875 -1.309375 7.071875 -1.625 6.125 C-1.810625 5.073125 -1.810625 5.073125 -2 4 C-1.34 3.34 -0.68 2.68 0 2 C0 1.34 0 0.68 0 0 Z " fill="#526269" transform="translate(312,331)"/>
<path d="M0 0 C2.97 0 5.94 0 9 0 C9 0.33 9 0.66 9 1 C7.02 1 5.04 1 3 1 C2.67 11.23 2.34 21.46 2 32 C1.34 32 0.68 32 0 32 C0 21.44 0 10.88 0 0 Z " fill="#2C393F" transform="translate(279,323)"/>
<path d="M0 0 C1.32 0.33 2.64 0.66 4 1 C3.84660156 1.77601563 3.69320312 2.55203125 3.53515625 3.3515625 C2.85009286 8.02199468 2.64253523 12.66255085 2.4375 17.375 C2.39431641 18.30183594 2.35113281 19.22867188 2.30664062 20.18359375 C2.20123814 22.45560294 2.09911394 24.72770925 2 27 C0.35 27 -1.3 27 -3 27 C-2.34 26.67 -1.68 26.34 -1 26 C-1.01160156 25.37996094 -1.02320313 24.75992188 -1.03515625 24.12109375 C-1.11753019 16.03667944 -0.60889919 8.05704105 0 0 Z " fill="#173753" transform="translate(226,167)"/>
<path d="M0 0 C2.33944736 0.28730055 4.6739143 0.61936779 7 1 C7 1.99 7 2.98 7 4 C-1.91 4 -10.82 4 -20 4 C-20 3.01 -20 2.02 -20 1 C-19.42967041 1.00523682 -18.85934082 1.01047363 -18.27172852 1.01586914 C-15.70199677 1.03658221 -13.13228253 1.0496419 -10.5625 1.0625 C-9.66466797 1.07087891 -8.76683594 1.07925781 -7.84179688 1.08789062 C-6.56079102 1.09272461 -6.56079102 1.09272461 -5.25390625 1.09765625 C-4.46314697 1.10289307 -3.6723877 1.10812988 -2.85766602 1.11352539 C-0.98407311 1.20495909 -0.98407311 1.20495909 0 0 Z " fill="#0D1435" transform="translate(193,217)"/>
<path d="M0 0 C8.58 0 17.16 0 26 0 C26 0.33 26 0.66 26 1 C25.28972656 1.13277344 24.57945312 1.26554688 23.84765625 1.40234375 C22.92855469 1.57894531 22.00945312 1.75554687 21.0625 1.9375 C20.14597656 2.11152344 19.22945312 2.28554687 18.28515625 2.46484375 C16.04710156 2.77714988 16.04710156 2.77714988 15 4 C9.72048114 4.42040613 4.77520694 4.54677703 0 2 C0 1.34 0 0.68 0 0 Z " fill="#224F69" transform="translate(225,141)"/>
<path d="M0 0 C0.33 0 0.66 0 1 0 C1.19322964 4.58939484 1.3717904 9.1790461 1.53710938 13.76953125 C1.59530802 15.32925499 1.65742859 16.88883774 1.72363281 18.44824219 C1.81840823 20.69700427 1.89880683 22.94590525 1.9765625 25.1953125 C2.00875885 25.8861795 2.0409552 26.57704651 2.0741272 27.28884888 C2.2062715 31.61398551 1.70158383 35.0163614 0 39 C-2.79908133 41.79908133 -5.13081763 41.72362983 -9 42 C-9.66 41.34 -10.32 40.68 -11 40 C-10.36191406 39.81824219 -9.72382813 39.63648438 -9.06640625 39.44921875 C-8.24011719 39.19785156 -7.41382813 38.94648438 -6.5625 38.6875 C-5.73878906 38.44386719 -4.91507812 38.20023437 -4.06640625 37.94921875 C-3.38449219 37.63597656 -2.70257813 37.32273437 -2 37 C-0.79838489 33.39515466 -0.76982864 30.02710143 -0.68359375 26.26953125 C-0.66281265 25.51911057 -0.64203156 24.76868988 -0.62062073 23.99552917 C-0.55530074 21.60127816 -0.49632208 19.20691861 -0.4375 16.8125 C-0.39429807 15.18813987 -0.35068324 13.56379067 -0.30664062 11.93945312 C-0.19963737 7.95974629 -0.09832063 3.97993042 0 0 Z " fill="#7A8589" transform="translate(278,323)"/>
<path d="M0 0 C0.80824219 0.28746094 1.61648438 0.57492187 2.44921875 0.87109375 C3.06410156 1.09925781 3.67898438 1.32742188 4.3125 1.5625 C4.3125 2.5525 4.3125 3.5425 4.3125 4.5625 C2.3125 6.25 2.3125 6.25 0.3125 7.5625 C-0.0175 6.9025 -0.3475 6.2425 -0.6875 5.5625 C-2.58283342 5.09726937 -2.58283342 5.09726937 -4.75 4.9375 C-6.049375 4.81375 -7.34875 4.69 -8.6875 4.5625 C-8.3575 2.9125 -8.0275 1.2625 -7.6875 -0.4375 C-4.20878379 -1.59707207 -3.34530355 -1.21206651 0 0 Z " fill="#31414D" transform="translate(262.6875,363.4375)"/>
<path d="M0 0 C0.66 0.66 1.32 1.32 2 2 C3.32 1.34 4.64 0.68 6 0 C4.125 3.875 4.125 3.875 3 5 C2.8798415 6.391123 2.82057503 7.78764668 2.7890625 9.18359375 C2.76070312 10.02857422 2.73234375 10.87355469 2.703125 11.74414062 C2.65116097 13.53560067 2.60685405 15.32729965 2.5703125 17.11914062 C2.52390625 18.38854492 2.52390625 18.38854492 2.4765625 19.68359375 C2.45674316 20.46275146 2.43692383 21.24190918 2.41650391 22.04467773 C2 24 2 24 -1 26 C-1.33 25.34 -1.66 24.68 -2 24 C-1.34 24 -0.68 24 0 24 C0 16.08 0 8.16 0 0 Z " fill="#25435D" transform="translate(200,117)"/>
<path d="M0 0 C1.42944945 2.35438733 2.08661261 3.48032433 1.625 6.25 C1.41875 6.8275 1.2125 7.405 1 8 C0.34 8 -0.32 8 -1 8 C-1.66 8.66 -2.32 9.32 -3 10 C-3.66 9.34 -4.32 8.68 -5 8 C-5 9.32 -5 10.64 -5 12 C-4.01 12 -3.02 12 -2 12 C-1.34 13.65 -0.68 15.3 0 17 C-3.05957468 16.67218843 -4.05836134 15.94321599 -6.3125 13.75 C-8 11 -8 11 -7.9375 8.3125 C-7 6 -7 6 -4 4 C-3.34 4.33 -2.68 4.66 -2 5 C-1.34 3.35 -0.68 1.7 0 0 Z " fill="#32454C" transform="translate(188,353)"/>
<path d="M0 0 C0.598125 0.309375 1.19625 0.61875 1.8125 0.9375 C4.08956772 2.10209704 4.08956772 2.10209704 7 3 C7.99 3.66 8.98 4.32 10 5 C9.01 5 8.02 5 7 5 C7 10.28 7 15.56 7 21 C6.67 21 6.34 21 6 21 C6 16.05 6 11.1 6 6 C5.01 6 4.02 6 3 6 C2.67 6.99 2.34 7.98 2 9 C1.34 9 0.68 9 0 9 C-0.84454356 5.62182575 -1.10844919 3.32534757 0 0 Z " fill="#55646D" transform="translate(110,327)"/>
<path d="M0 0 C8.25 0 16.5 0 25 0 C24.01 0.66 23.02 1.32 22 2 C22 2.66 22 3.32 22 4 C21.01 3.67 20.02 3.34 19 3 C16.13551491 2.90347622 13.30118925 2.86074097 10.4375 2.875 C9.26670898 2.86919922 9.26670898 2.86919922 8.07226562 2.86328125 C3.90330125 2.76516735 3.90330125 2.76516735 0 4 C0 2.68 0 1.36 0 0 Z " fill="#306F83" transform="translate(251,141)"/>
<path d="M0 0 C0.66 0 1.32 0 2 0 C2 7.59 2 15.18 2 23 C-4.93 23 -11.86 23 -19 23 C-19 22.67 -19 22.34 -19 22 C-17.71222656 21.93941406 -16.42445313 21.87882812 -15.09765625 21.81640625 C-13.41925841 21.73201753 -11.74087364 21.6473687 -10.0625 21.5625 C-9.21236328 21.52318359 -8.36222656 21.48386719 -7.48632812 21.44335938 C-6.67744141 21.40146484 -5.86855469 21.35957031 -5.03515625 21.31640625 C-3.91185913 21.26141968 -3.91185913 21.26141968 -2.76586914 21.20532227 C-0.97538674 21.18228937 -0.97538674 21.18228937 0 20 C0.09956009 17.7101179 0.1296872 15.41704063 0.125 13.125 C0.12757813 11.86945313 0.13015625 10.61390625 0.1328125 9.3203125 C0.15407077 5.99878218 0.15407077 5.99878218 -1 3 C-0.67 2.01 -0.34 1.02 0 0 Z " fill="#38828B" transform="translate(322,273)"/>
<path d="M0 0 C0.99 0 1.98 0 3 0 C3 0.66 3 1.32 3 2 C3.99 2.33 4.98 2.66 6 3 C6 3.99 6 4.98 6 6 C4.4375 7.1875 4.4375 7.1875 2 8 C-1.75 6.625 -1.75 6.625 -5 5 C-4.67 3.68 -4.34 2.36 -4 1 C-3.01 1.33 -2.02 1.66 -1 2 C-0.67 1.34 -0.34 0.68 0 0 Z " fill="#2E3F48" transform="translate(165,334)"/>
<path d="M0 0 C1.65 0.33 3.3 0.66 5 1 C4.67 1.99 4.34 2.98 4 4 C3.34 4 2.68 4 2 4 C1.67 12.91 1.34 21.82 1 31 C-2.3 31 -5.6 31 -9 31 C-9 30.67 -9 30.34 -9 30 C-6.03 30 -3.06 30 0 30 C0 20.1 0 10.2 0 0 Z " fill="#6C767A" transform="translate(162,340)"/>
<path d="M0 0 C1.73783825 2.60675737 2.50215905 4.01295431 3 7 C2.67 7.33 2.34 7.66 2 8 C2.66 8.33 3.32 8.66 4 9 C3.67 9.99 3.34 10.98 3 12 C2.65179959 13.66362417 2.31595508 15.32995171 2 17 C1.67 16.01 1.34 15.02 1 14 C0.01 13.67 -0.98 13.34 -2 13 C-1.835 12.0925 -1.67 11.185 -1.5 10.25 C-0.89862854 6.88912497 -0.89862854 6.88912497 -1 3 C-0.67 2.01 -0.34 1.02 0 0 Z " fill="#2F3E4D" transform="translate(374,326)"/>
<path d="M0 0 C7.92 0 15.84 0 24 0 C23.67 0.66 23.34 1.32 23 2 C20.42682297 2.3448897 17.96049228 2.56076018 15.375 2.6875 C14.32505859 2.75807617 14.32505859 2.75807617 13.25390625 2.83007812 C8.67759652 3.08903443 4.51508497 2.78806601 0 2 C0 1.34 0 0.68 0 0 Z " fill="#0F1A3C" transform="translate(198,194)"/>
<path d="M0 0 C3 1 3 1 4.0625 2.9375 C4.371875 3.618125 4.68125 4.29875 5 5 C5.66 5.66 6.32 6.32 7 7 C6.01 7.33 5.02 7.66 4 8 C3.67 8.66 3.34 9.32 3 10 C2.34 9.34 1.68 8.68 1 8 C-1.06874034 7.3574765 -1.06874034 7.3574765 -3 7 C-1.125 2.25 -1.125 2.25 0 0 Z " fill="#2C3E48" transform="translate(395,355)"/>
<path d="M0 0 C1.98 0.66 3.96 1.32 6 2 C6.33 3.98 6.66 5.96 7 8 C6.360625 8.12375 5.72125 8.2475 5.0625 8.375 C4.381875 8.58125 3.70125 8.7875 3 9 C2.67 9.66 2.34 10.32 2 11 C-0.32590854 7.36576791 -0.16265833 4.22911669 0 0 Z " fill="#3C4B53" transform="translate(384,339)"/>
<path d="M0 0 C-0.33 2.97 -0.66 5.94 -1 9 C-1.99 8.67 -2.98 8.34 -4 8 C-4.33 8.66 -4.66 9.32 -5 10 C-5 9.01 -5 8.02 -5 7 C-4.34 7 -3.68 7 -3 7 C-3 6.34 -3 5.68 -3 5 C-4.32 4.67 -5.64 4.34 -7 4 C-6.625 2.0625 -6.625 2.0625 -6 0 C-4 -1 -4 -1 0 0 Z " fill="#2D3D46" transform="translate(340,336)"/>
<path d="M0 0 C0.33 0 0.66 0 1 0 C1.738041 12.66970387 1.738041 12.66970387 -3 18 C-3.99 17.67 -4.98 17.34 -6 17 C-5.75 14.125 -5.75 14.125 -5 11 C-4.01 10.55140625 -4.01 10.55140625 -3 10.09375 C-2.34 9.7328125 -1.68 9.371875 -1 9 C-0.3006486 6.81458448 -0.3006486 6.81458448 -0.25 4.375 C-0.19328125 3.55773437 -0.1365625 2.74046875 -0.078125 1.8984375 C-0.05234375 1.27195312 -0.0265625 0.64546875 0 0 Z " fill="#566267" transform="translate(145,334)"/>
<path d="M0 0 C1.98960773 3.3183077 2.2361745 5.79959699 2.1953125 9.640625 C2.18564453 11.24550781 2.18564453 11.24550781 2.17578125 12.8828125 C2.15902344 13.99398438 2.14226562 15.10515625 2.125 16.25 C2.11597656 17.37664062 2.10695312 18.50328125 2.09765625 19.6640625 C2.07410658 22.44292365 2.0412168 25.2213539 2 28 C2.66 28.33 3.32 28.66 4 29 C2.02 29 0.04 29 -2 29 C-1.84152588 28.46084961 -1.68305176 27.92169922 -1.51977539 27.36621094 C-0.91090977 24.59442811 -0.78489684 21.97711149 -0.68359375 19.140625 C-0.64169922 18.02558594 -0.59980469 16.91054688 -0.55664062 15.76171875 C-0.51732422 14.60285156 -0.47800781 13.44398438 -0.4375 12.25 C-0.37272461 10.48849609 -0.37272461 10.48849609 -0.30664062 8.69140625 C-0.20065206 5.79438549 -0.09858362 2.89728065 0 0 Z " fill="#283741" transform="translate(155,341)"/>
<path d="M0 0 C7.26 0 14.52 0 22 0 C22 0.99 22 1.98 22 3 C18.89510601 2.89008434 15.79142006 2.75946585 12.6875 2.625 C11.80642578 2.5940625 10.92535156 2.563125 10.01757812 2.53125 C9.17001953 2.49257812 8.32246094 2.45390625 7.44921875 2.4140625 C6.66893311 2.3826416 5.88864746 2.3512207 5.0847168 2.31884766 C3 2 3 2 0 0 Z " fill="#1D2F45" transform="translate(176,141)"/>
<path d="M0 0 C1.98 0 3.96 0 6 0 C6 8.25 6 16.5 6 25 C5.67 25 5.34 25 5 25 C5 17.74 5 10.48 5 3 C3.68 3.33 2.36 3.66 1 4 C0.67 2.68 0.34 1.36 0 0 Z " fill="#35454C" transform="translate(188,324)"/>
<path d="M0 0 C0.66 0.99 1.32 1.98 2 3 C1.67 3.99 1.34 4.98 1 6 C-1.75 6.75 -1.75 6.75 -5 7 C-7.375 5.0625 -7.375 5.0625 -9 3 C-7.68 2.34 -6.36 1.68 -5 1 C-4.34 1.99 -3.68 2.98 -3 4 C-2.67 3.01 -2.34 2.02 -2 1 C-1.34 0.67 -0.68 0.34 0 0 Z " fill="#3D4B54" transform="translate(180,349)"/>
<path d="M0 0 C1.99097846 2.98646769 2.94124926 5.59687262 4 9 C1.03 8.505 1.03 8.505 -2 8 C-2.33 9.32 -2.66 10.64 -3 12 C-3.99 12 -4.98 12 -6 12 C-6.33 10.02 -6.66 8.04 -7 6 C-6.34 6 -5.68 6 -5 6 C-5 6.66 -5 7.32 -5 8 C-2.95163118 7.43637698 -2.95163118 7.43637698 -1 6 C-0.18415432 2.94091587 -0.18415432 2.94091587 0 0 Z " fill="#5C686E" transform="translate(388,329)"/>
<path d="M0 0 C0.66 0.33 1.32 0.66 2 1 C2 2.98 2 4.96 2 7 C0.35 7.66 -1.3 8.32 -3 9 C-3 8.34 -3 7.68 -3 7 C-3.66 7 -4.32 7 -5 7 C-4.34 5.35 -3.68 3.7 -3 2 C-2.01 2 -1.02 2 0 2 C0 1.34 0 0.68 0 0 Z " fill="#2F414A" transform="translate(386,328)"/>
<path d="M0 0 C8.25 0 16.5 0 25 0 C20.51445587 2.24277206 20.51445587 2.24277206 16.99609375 2.0546875 C16.25552734 2.03019531 15.51496094 2.00570313 14.75195312 1.98046875 C13.20471219 1.90996157 11.65780202 1.83179256 10.11132812 1.74609375 C7.59625497 1.62970283 7.59625497 1.62970283 4 2 C1.91876691 3.84047521 1.91876691 3.84047521 1 6 C0.67 5.67 0.34 5.34 0 5 C0 3.35 0 1.7 0 0 Z " fill="#2B373D" transform="translate(107,323)"/>
<path d="M0 0 C2.97 0 5.94 0 9 0 C12.22265625 5.2734375 12.22265625 5.2734375 13 7 C12.67 7.66 12.34 8.32 12 9 C9 8 9 8 6.5625 5.0625 C4.11695307 1.7259915 4.11695307 1.7259915 0 0 Z " fill="#586467" transform="translate(299,322)"/>
<path d="M0 0 C3.96 0 7.92 0 12 0 C11.67 0.99 11.34 1.98 11 3 C6.71 3 2.42 3 -2 3 C-1.34 2.67 -0.68 2.34 0 2 C0 1.34 0 0.68 0 0 Z " fill="#2C3B44" transform="translate(117,328)"/>
<path d="M0 0 C0.99 0.99 1.98 1.98 3 3 C2.67 3.66 2.34 4.32 2 5 C2 5.99 2 6.98 2 8 C1.04346365 10.3514852 0.04718798 12.68745988 -1 15 C-1.33 15 -1.66 15 -2 15 C-2.125 12.125 -2.125 12.125 -2 9 C-1.34 8.34 -0.68 7.68 0 7 C-0.99 6.67 -1.98 6.34 -3 6 C-2.01 4.02 -1.02 2.04 0 0 Z " fill="#4A5860" transform="translate(378,328)"/>
<path d="M0 0 C0.33 0 0.66 0 1 0 C1 5.94 1 11.88 1 18 C-0.65 18 -2.3 18 -4 18 C-3.34 17.67 -2.68 17.34 -2 17 C-2 14.36 -2 11.72 -2 9 C-1.67 9 -1.34 9 -1 9 C-0.67 6.03 -0.34 3.06 0 0 Z " fill="#284763" transform="translate(227,176)"/>
<path d="M0 0 C0.66 0.33 1.32 0.66 2 1 C4.3400417 0.71758117 6.67504723 0.38749213 9 0 C9.33 1.32 9.66 2.64 10 4 C6.37 4 2.74 4 -1 4 C-0.67 2.68 -0.34 1.36 0 0 Z " fill="#616C73" transform="translate(355,367)"/>
<path d="M0 0 C0 3.96 0 7.92 0 12 C-1.65 12 -3.3 12 -5 12 C-4.34 11.67 -3.68 11.34 -3 11 C-1.88578167 7.35346727 -2.05703411 4.66708957 -3 1 C-1 0 -1 0 0 0 Z " fill="#2D3B41" transform="translate(116,358)"/>
<path d="M0 0 C2.375 0.25 2.375 0.25 5 1 C6.3125 3.0625 6.3125 3.0625 7 5 C5.1875 5.6875 5.1875 5.6875 3 6 C1.25 4.75 1.25 4.75 0 3 C0 2.01 0 1.02 0 0 Z " fill="#283942" transform="translate(366,346)"/>
<path d="M0 0 C1.98 0.66 3.96 1.32 6 2 C5.67 3.98 5.34 5.96 5 8 C1.535 6.02 1.535 6.02 -2 4 C-1.34 3.67 -0.68 3.34 0 3 C0 2.01 0 1.02 0 0 Z " fill="#394951" transform="translate(369,342)"/>
<path d="M0 0 C0.66 0 1.32 0 2 0 C2 0.66 2 1.32 2 2 C3.32 1.67 4.64 1.34 6 1 C5.979375 1.804375 5.95875 2.60875 5.9375 3.4375 C5.70366379 5.93354885 5.70366379 5.93354885 7 7 C7.04080783 8.99958364 7.04254356 11.00045254 7 13 C5.21178226 10.31767339 3.79857396 7.69711039 2.375 4.8125 C1.70597656 3.46091797 1.70597656 3.46091797 1.0234375 2.08203125 C0.68570312 1.39496094 0.34796875 0.70789063 0 0 Z " fill="#687278" transform="translate(314,352)"/>
<path d="M0 0 C-1.875 3.875 -1.875 3.875 -3 5 C-3.23481693 7.18292774 -3.41363323 9.37203174 -3.5625 11.5625 C-3.64628906 12.76003906 -3.73007813 13.95757812 -3.81640625 15.19140625 C-3.87699219 16.11824219 -3.93757812 17.04507813 -4 18 C-4.33 18 -4.66 18 -5 18 C-5.0809723 15.56183415 -5.14046972 13.12635616 -5.1875 10.6875 C-5.21263672 9.99720703 -5.23777344 9.30691406 -5.26367188 8.59570312 C-5.33777767 3.4824036 -5.33777767 3.4824036 -3.61328125 1.01953125 C-2 0 -2 0 0 0 Z " fill="#1D4766" transform="translate(206,117)"/>
<path d="M0 0 C2.99324263 1.0975223 3.84610901 1.67682892 5.25 4.625 C5.4975 5.40875 5.745 6.1925 6 7 C3.625 6.8125 3.625 6.8125 1 6 C-0.3125 3.4375 -0.3125 3.4375 -1 1 C-0.67 0.67 -0.34 0.34 0 0 Z " fill="#4B565B" transform="translate(175,342)"/>
<path d="M0 0 C1.98 0 3.96 0 6 0 C6.33 0.99 6.66 1.98 7 3 C10.63 3 14.26 3 18 3 C18 3.33 18 3.66 18 4 C5.33029613 4.55353075 5.33029613 4.55353075 0 1 C0 0.67 0 0.34 0 0 Z " fill="#9CA6AD" transform="translate(256,368)"/>
<path d="M0 0 C0.33 0.66 0.66 1.32 1 2 C1.66 2 2.32 2 3 2 C2.67 2.66 2.34 3.32 2 4 C0.02 4 -1.96 4 -4 4 C-4 3.34 -4 2.68 -4 2 C-2.68 1.34 -1.36 0.68 0 0 Z M-3 4 C-2.01 4.33 -1.02 4.66 0 5 C-0.66 6.32 -1.32 7.64 -2 9 C-2.66 9 -3.32 9 -4 9 C-3.67 7.35 -3.34 5.7 -3 4 Z " fill="#143258" transform="translate(229,192)"/>
<path d="M0 0 C1.74627478 2.61941217 2.38722388 4.03824877 3 7 C1.02 7.33 -0.96 7.66 -3 8 C-2.01 5.36 -1.02 2.72 0 0 Z " fill="#59646C" transform="translate(337,328)"/>
<path d="M0 0 C0.66 0 1.32 0 2 0 C2 0.66 2 1.32 2 2 C2.99 2 3.98 2 5 2 C5.66 3.65 6.32 5.3 7 7 C3.76509224 6.44225728 2.02144994 5.62788492 0 3 C0 2.01 0 1.02 0 0 Z " fill="#58636A" transform="translate(181,363)"/>
<path d="M0 0 C2.475 0.495 2.475 0.495 5 1 C5 1.66 5 2.32 5 3 C4.34 3 3.68 3 3 3 C3 4.98 3 6.96 3 9 C2.01 9.495 2.01 9.495 1 10 C0.0008068 6.89139894 0.16963011 5.11388708 1 2 C0.67 1.34 0.34 0.68 0 0 Z " fill="#415158" transform="translate(330,348)"/>
<path d="M0 0 C1.74627478 2.61941217 2.38722388 4.03824877 3 7 C1.02 7.99 1.02 7.99 -1 9 C-1.80967438 6.08517222 -2.21845993 4.53886783 -1.0625 1.6875 C-0.711875 1.130625 -0.36125 0.57375 0 0 Z " fill="#2B3944" transform="translate(374,326)"/>
<path d="M0 0 C2.31 0 4.62 0 7 0 C5 2 5 2 2 3 C2 4.65 2 6.3 2 8 C1.34 8 0.68 8 0 8 C-0.79953138 4.71303767 -1.09658936 3.28976808 0 0 Z " fill="#233239" transform="translate(155,323)"/>
<path d="M0 0 C2 3 2 3 2.4375 5.125 C2.7159375 6.053125 2.7159375 6.053125 3 7 C3.99 7.33 4.98 7.66 6 8 C5.01 8.495 5.01 8.495 4 9 C1.375 7.5625 1.375 7.5625 -1 6 C-0.67 4.02 -0.34 2.04 0 0 Z " fill="#687377" transform="translate(257,353)"/>
<path d="M0 0 C1.2380014 3.57644848 0.74926071 6.33694766 0 10 C-1.32 10.33 -2.64 10.66 -4 11 C-2.7874262 7.27566618 -1.49140021 3.62197194 0 0 Z " fill="#737C7F" transform="translate(366,342)"/>
<path d="M0 0 C0.66 0 1.32 0 2 0 C2 4.95 2 9.9 2 15 C1.67 15 1.34 15 1 15 C0.93941406 14.38511719 0.87882812 13.77023437 0.81640625 13.13671875 C0.73261719 12.32847656 0.64882813 11.52023437 0.5625 10.6875 C0.48128906 9.88699219 0.40007812 9.08648437 0.31640625 8.26171875 C0.04734307 5.83912821 0.04734307 5.83912821 -1 3 C-0.67 2.01 -0.34 1.02 0 0 Z " fill="#318592" transform="translate(322,273)"/>
<path d="M0 0 C0.66 0 1.32 0 2 0 C2 1.32 2 2.64 2 4 C2.66 4.33 3.32 4.66 4 5 C2.1875 6.0625 2.1875 6.0625 0 7 C-0.99 6.67 -1.98 6.34 -3 6 C-2.01 4.02 -1.02 2.04 0 0 Z " fill="#4C5962" transform="translate(279,363)"/>
<path d="M0 0 C2.27521866 2.16687491 4.15794162 4.45620509 6 7 C5.67 7.66 5.34 8.32 5 9 C2.5 7.875 2.5 7.875 0 6 C-0.3125 2.8125 -0.3125 2.8125 0 0 Z " fill="#697376" transform="translate(162,323)"/>
<path d="M0 0 C1.09658936 3.28976808 0.79953138 4.71303767 0 8 C-0.99 8 -1.98 8 -3 8 C-2.74438677 5.6568787 -2.40729228 3.32156597 -2 1 C-1.34 0.67 -0.68 0.34 0 0 Z " fill="#2A3E47" transform="translate(331,350)"/>
<path d="M0 0 C2.9375 0.75 2.9375 0.75 6 2 C6.875 4.125 6.875 4.125 7 6 C6.01 6.33 5.02 6.66 4 7 C3.67 5.35 3.34 3.7 3 2 C2.01 1.67 1.02 1.34 0 1 C0 0.67 0 0.34 0 0 Z " fill="#687277" transform="translate(131,332)"/>
<path d="M0 0 C2.62187494 1.04874998 3.79371361 1.64931313 5.25 4.125 C5.4975 4.74375 5.745 5.3625 6 6 C5.01 6 4.02 6 3 6 C3 5.34 3 4.68 3 4 C1.68 3.67 0.36 3.34 -1 3 C-0.67 2.01 -0.34 1.02 0 0 Z " fill="#586A6E" transform="translate(138,325)"/>
<path d="M0 0 C2.83374881 3.20336822 3.5205537 5.78087253 4 10 C0.06153846 5.69230769 0.06153846 5.69230769 -0.25 2.1875 C-0.1675 1.465625 -0.085 0.74375 0 0 Z " fill="#757D7F" transform="translate(395,345)"/>
<path d="M0 0 C0.33 0.66 0.66 1.32 1 2 C0.67 2.66 0.34 3.32 0 4 C1.32 4.66 2.64 5.32 4 6 C1.69 6.33 -0.62 6.66 -3 7 C-1.125 1.125 -1.125 1.125 0 0 Z " fill="#616D76" transform="translate(333,336)"/>
</svg>
